<svg xmlns="http://www.w3.org/2000/svg" width="695.293" height="531.559" viewBox="0 0 695.293 531.559">
  <g id="Group_4519" data-name="Group 4519" transform="translate(-5233.628 14536.763)">
    <g id="world" transform="translate(4389.128 -14546.963)" opacity="0.15">
      <path id="AF" d="M1364.667,259.854l1.115,1.338-2.155.595-1.784.818-4.385.595-3.939.966-1.784,2.081,1.412,2.007,1.041,2.378-1.487,2.007.595,1.858-.669,1.709-3.865-.149,2.3,3.122-2.3,1.263-1.041,2.824.818,2.9L1347.2,287.5l-1.561-.446-2.973.669-.149,1.263h-3.047l-1.709,2.75.595,4.013-4.906,2.007-2.9-.446-.669,1.041-2.527-.595-3.939.743-7.135-2.453,2.9-4.311-.817-3.047-3.2-.818-.892-3.047-2.007-3.79,1.189-2.6-1.858-.743.372-3.493.446-5.946,4.385,1.858,2.9-.669.3-2.155,2.973-.669,1.932-1.486-.148-3.79,3.121-.966.223-1.635,2.155,1.264,1.189.149h2.23l3.2,1.04,1.338.52,2.527-1.486,1.561.892.669-2.155,2.378.074.446-.669-.148-1.932,1.263-1.635,2.453,1.041-.074,1.486,1.263.223.669,4.013,2.007,1.561,1.115-1.04,1.635-.446,1.858-2.155,2.824.372h4.013Z" transform="translate(-119.937 -62.806)" fill="#09a3bf"/>
      <path id="Path_1100" data-name="Path 1100" d="M1103.3,563.655l.446,1.486-.521,2.3.669,2.23-.669,1.784.3,1.635-8.7-.074-.595,15.236,2.676,3.865,2.676,2.973-7.729,1.932-10.034-.669-2.824-2.23-16.871.149-.595.372-2.453-2.155-2.676-.149-2.527.818-2.007.892-.372-2.973.669-4.237,1.486-4.385.223-2.007,1.412-4.311,1.04-1.932,2.453-3.122,1.412-2.155.446-3.493-.223-2.75-1.189-1.709-1.115-2.9-.966-2.824.223-1.041,1.264-1.858-1.189-4.608-.892-3.2-2.081-3.047.446-.892,1.709-.669,1.264.074,1.486-.52,12.412.074.966,3.493,1.189,2.9.966,1.561,1.561,2.453,2.824-.372,1.338-.669,2.3.669.669-1.189,1.115-2.75,2.6-.223.223-.818h2.155l-.372,1.709,5.054-.074.074,3.047.818,1.784-.669,2.9.3,2.973,1.338,1.784-.3,5.649,1.04-.446,1.784.149,2.6-.743Z" transform="translate(-53.151 -135.908)" fill="#09a3bf"/>
      <path id="Path_1101" data-name="Path 1101" d="M1054.915,536.766,1053.8,533.2l1.709-2.081,1.264-.818,1.561,1.635-1.487,1.041-.743,1.189-.149,2.081Z" transform="translate(-53.742 -133.545)" fill="#09a3bf"/>
      <path id="AL" d="M1087.512,228l.3.892,1.041-.446.892,1.263.966.52.446,1.709-.371,1.635.743,2.007,1.709,1.115.074,1.263-1.264.669-.074,1.561-1.635,2.3-.669-.3-.149-1.041-2.3-1.635-.52-2.23.074-3.27.372-1.412-.669-.743-.372-1.561,1.412-2.3Z" transform="translate(-62.035 -55.924)" fill="#09a3bf"/>
      <path id="AE" d="M1289.832,336.135l.966,3.79h-2.081v3.122l.818.669-1.784.966.149,1.932-.966,1.932v1.932l-.743,1.041-12.561-2.378-2.007-4.905-.223-1.041.669-.3.3,1.338,3.121-.743,3.419.149,2.527.149,2.453-3.27,2.75-3.047,2.23-2.973.966,1.635Z" transform="translate(-109.614 -83.27)" fill="#09a3bf"/>
      <path id="AM" d="M1226.178,248.943l-1.338.149-2.081-2.75-.149-.743H1220.9l-1.412-1.263-.743.074-1.784-1.338-3.121-1.189-.074-2.3-.966-1.635,5.2-.743,1.041,1.189,1.635.818-.52,1.189,2.378,1.635-.818,1.561,1.932,1.264,1.858.743Z" transform="translate(-94.568 -58.286)" fill="#09a3bf"/>
      <path id="AT" d="M1061.177,190.081l-.223.595.52,1.561-.149,1.932h-2.081l.818,1.041-.966,2.973-.669.818-3.27.074-1.784,1.115-3.122-.372-5.425-1.264-.966-1.561-3.642.818-.371.892-2.3-.669-1.932-.149-1.709-.892.52-1.115-.149-.818,1.041-.223,2.007,1.264.446-1.264,3.27.223,2.6-.818,1.784.149,1.263.966.3-.818-.743-3.047,1.264-.595,1.189-2.155,2.824,1.561,1.932-1.932,1.263-.372,2.973,1.412,1.709-.223,1.784.892Z" transform="translate(-48.632 -45.653)" fill="#09a3bf"/>
      <path id="Path_1106" data-name="Path 1106" d="M1226.895,251.557l-2.824-.669-2.378-2.155-.892-1.858.743-.074,1.412,1.263h1.709l.149.743Z" transform="translate(-96.622 -60.751)" fill="#09a3bf"/>
      <path id="Path_1107" data-name="Path 1107" d="M1231.32,235.455l1.858-1.932,2.6,2.453,2.676,3.419,1.858.223,1.412,1.263-3.121.372.074,3.716-.3,1.635-1.264,1.115.595,2.3-.966.3-2.9-2.527.892-2.3-1.412-1.412-1.412.372-3.939,3.493-.669-3.345-1.858-.743-1.932-1.263.818-1.561-2.379-1.635.52-1.189-1.635-.818-1.04-1.189.818-.818,3.122,1.412,2.155.223.446-.52-2.453-2.6.892-.595,1.115.149,3.2,2.824,1.783.372Z" transform="translate(-96.365 -57.285)" fill="#09a3bf"/>
      <path id="BI" d="M1153.847,526.934l-.446.074v-.223l-1.486-4.534-.008-.045-.067-.773-1.041-2.155,2.6.372,1.263-2.75,2.3.3.223,1.858.892,1.115v1.561l-1.041.966-1.709,2.527-1.487,1.709Z" transform="translate(-78.648 -130.105)" fill="#09a3bf"/>
      <path id="BE" d="M1011.9,176.022l-.3,3.122-.966.149-.3,2.6-3.27-2.155-1.858.372-2.6-2.155-1.784-1.858-1.635-.074-.594-1.635,2.9-.892,2.676.372,3.345-.966,2.3,2.007,2.081,1.115Z" transform="translate(-39.568 -41.776)" fill="#09a3bf"/>
      <path id="BJ" d="M1002.592,426.05l-.149,1.561.966,2.824-.818,1.932.446,1.263-2.081,2.973-1.263,1.486-.818,2.973.149,3.047-.223,7.655-3.493.595-1.041-3.27.223-11-.892-.966-.149-2.378-1.487-1.635L990.7,431.7l.52-2.527,1.487-.52.817-2.081,2.081-.446.892-1.412,1.412-1.412H999.4l3.2,2.75Z" transform="translate(-37.54 -106.071)" fill="#09a3bf"/>
      <path id="BF" d="M980.027,405.692l-.372,2.3.595,2.155,2.3,3.122.149,2.3,4.831,1.115-.074,3.27-.892,1.412-2.081.446-.818,2.081-1.486.52-3.642-.074-1.932-.372-1.338.743-1.858-.372-7.284.223-.149,2.75.595,3.568-2.9-1.189-1.932.149-1.487,1.189-1.858-.966-.743-1.635-1.858-1.041-.3-2.75,1.189-2.007L956.541,421l3.345-3.939.669-3.27,1.115-1.189,2.007.669,1.784-.966.595-1.263,3.2-2.081.817-1.486,3.939-2.007,2.3-.669,1.04.892Z" transform="translate(-28.501 -101.321)" fill="#09a3bf"/>
      <path id="BD" d="M1493.282,353.034l.446,3.419-1.561-.743.818,3.865-1.561-2.453-.595-2.453-1.115-2.3-2.081-2.75-3.865-.223.669,2.007-.892,2.6-1.932-.966-.446.892-1.264-.52-1.635-.446-1.189-3.939-1.932-3.568.223-2.9-2.75-1.263.669-1.709,2.23-1.784-3.419-2.527.892-3.27,3.642,2.081,2.007.223.892,3.344,4.013.669,3.791-.074,2.527.818-1.189,4.013-1.784.3-.892,2.676,2.676,2.527.223-3.122h1.115l3.27,7.581Z" transform="translate(-161.148 -82.628)" fill="#09a3bf"/>
      <path id="BG" d="M1124.46,220.727l-1.709,1.932-.966,3.345,1.561,2.676-3.419-.595-3.716,1.486.223,2.378-3.419.446-2.9-1.709-2.973,1.338-2.824-.149-.595-3.122-2.081-1.561.52-.595-.446-.595.446-1.486,1.338-1.486-2.081-2.007-.52-1.784.818-1.04,1.338,1.932,1.412-.3,2.973.669,5.648.3,1.71-1.189,4.385-1.115,2.973,1.709,2.3.52Z" transform="translate(-65.835 -53.408)" fill="#09a3bf"/>
      <path id="BA" d="M1078.763,213.684l1.412-.074-.818,2.081,2.007,1.858-.372,2.155-.818.223-.669.446-1.189,1.115-.3,2.6-3.568-1.784-1.561-2.007-1.561-1.041-1.858-1.784-.966-1.412-2.007-2.23.595-1.932,1.486,1.115.743-1.041,1.71-.074,3.344.818,2.6-.074,1.784,1.041Z" transform="translate(-57.003 -51.79)" fill="#09a3bf"/>
      <path id="BY" d="M1130.508,157.975l-2.9-.149-.594.446,1.115,1.486,1.487,2.973-3.047.223L1125.6,164l.223,2.3-1.561-.446-3.2.223-1.115-1.115-1.263.818-1.412-.669-2.9-.074-4.236-1.115-3.642-.372-2.824.149-1.784,1.189-1.709.223-.372-2.081-1.412-2.081,2.081-.966-.3-1.784-1.263-1.709-.446-2.007h3.493l3.568-1.709.372-2.527,2.676-1.486-.743-2.007,2.007-.743,3.419-1.709,3.939,1.115.669,1.115,1.784-.52,3.568,1.041.818,2.155-.52,1.189,2.824,2.973,1.561.818V155l2.527.818,1.263,1.189-1.189.966Z" transform="translate(-65.194 -34.433)" fill="#09a3bf"/>
      <path id="BT" d="M1484.9,322.653l1.932,1.561.372,2.9-3.344.149-3.493-.3-2.378.743-4.088-1.858-.3-.892,1.932-3.568,1.932-1.189,3.2,1.041,2.156.149,2.081,1.264Z" transform="translate(-161.533 -79.598)" fill="#09a3bf"/>
      <path id="BW" d="M1119.537,615.572l1.412,3.79.817.892,1.189,2.75,4.534,5.2,1.709.52-.074,1.709,1.115,3.047,3.2.743,2.527,2.155-6.02,3.493-3.865,3.568-1.487,3.2-1.338,1.784-2.23.372-.892,2.3-.446,1.486-2.676,1.041-3.345-.223-1.858-1.338-1.709-.52-2.081,1.041-1.115,2.3L1104.9,656.3l-2.081,2.155-2.973.52-.818-1.709.446-2.9-2.229-4.534-1.041-.743.446-13.9,4.088-.149.595-17.02,3.121-.149,6.466-1.709,1.486,2.007,2.75-1.858h1.263l2.378-1.115Z" transform="translate(-64.629 -155.345)" fill="#09a3bf"/>
      <path id="CF" d="M1107.666,442.34l2.9,1.858,2.3,1.932.074,1.561,2.9,2.453,1.784,2.081,1.041,2.824,3.2,1.932.669,1.486-1.338.52-2.75-.074-3.121-.52-1.561.372-.669,1.189-1.338.149-1.635-1.04-4.682,2.378L1103.5,461l-.595.372-1.189,2.9-3.2-.966-3.047-.446-2.676-1.784-3.493-1.635-2.23,1.561-1.635,2.378-.372,3.345-2.676-.223-2.9-.818-2.453,2.527-2.23,4.459-.446-1.412-.223-2.155-1.932-1.561-1.561-2.453-.372-1.709-2.007-2.527.372-1.412-.446-2.007.3-3.716,1.041-.818,2.081-4.831,3.419-.372.743-1.263.743.149,1.041,1.041,5.277-1.784,1.784-1.858,2.155-1.709-.446-1.635,1.189-.446,4.088.3,3.865-2.23,2.973-5.2,2.081-1.932,2.675-.818.52,2.007,2.453,2.973v2.007l-.594,1.932.3,1.487,1.412,1.412.372.223Z" transform="translate(-57.439 -107.868)" fill="#09a3bf"/>
      <path id="CH" d="M1029.855,197.012l.149.818-.52,1.115,1.709.892,1.932.149-.223,1.858-1.561.818-2.824-.595-.743,1.858-1.784.149-.669-.743-2.007,1.635-1.858.223-1.635-1.041-1.338-2.007-1.784.743v-2.155l2.676-2.6-.149-1.189,1.709.446.966-.818h3.122l.743-.966Z" transform="translate(-44.215 -47.605)" fill="#09a3bf"/>
      <path id="Path_1138" data-name="Path 1138" d="M1599.581,379.563l-3.2,2.3-3.642-1.486-.743-4.088,1.635-2.155,4.311-1.338,2.453.074,1.189,1.858-1.486,2.081Z" transform="translate(-191.935 -93.104)" fill="#09a3bf"/>
      <path id="Path_1139" data-name="Path 1139" d="M1560.561,179.132l6.689,3.345,4.459,4.311h5.649L1579.29,185l5.128-1.412.966,4.236-.223,1.709,2.081,5.054.446,4.608-5.128-.818-2.156,1.635,3.493,4.013,2.9,5.574-1.858.074,1.412,2.453-4.088-2.824v2.676l-4.757,2.007,2.081,2.527-3.419-.223-2.676-1.486-.818,3.419-2.9,2.527-1.561,3.047-4.682,1.338-1.784,2.23-3.568,1.338.966-2.23-1.709-1.858,1.487-3.2-3.345-2.453-2.527,1.635-2.676,3.345-.966,3.047-3.716.223-.966,2.23,3.568,3.2,3.568.818,1.04,2.081,3.791,1.412,2.824-3.419,4.385,1.858,2.6.149,1.71,2.453-4.98,1.338-.743,2.6-2.824,2.378-.669,3.345,5.277,2.6,3.419,4.682,4.088,4.385,4.088,3.642,1.189,3.568-2.081,1.338,1.784,2.527,2.9,1.486.594,3.865.074,3.79-2.081.446-1.561,5.128-1.71,6.317-2.527,5.649-4.757,4.385-4.905,4.088-4.534.52-2.155,2.081-1.71-1.486-1.858,2.3-5.351,2.453-4.311.669-.52,5.054-2.3.3-1.635-3.493.669-1.784-5.8-1.561-1.784.818-4.385-1.263-2.3-1.932.223-2.75-3.939-.892-2.3-1.784-3.047,2.527-3.939.595-3.27-.074-2.007,1.189-2.007.669,1.487,5.5-2.23-.149-.594-1.115-.372-2.007-2.824,1.412-1.932-.892-3.345-1.784.595-3.939-2.75-.966-1.784-4.385-4.162.818-.52-5.649,3.121-4.013-.669-3.939-.966-3.642-2.007-1.115-2.007-2.824-2.3.372-4.534-.743.892-2.007-2.676-2.973-2.378,2.007-3.642-1.115-4.014,2.973-2.9,3.568-3.121.595-2.081-1.263-2.155-.149-3.2-1.041-1.932,1.189L1447.589,284l-1.115-3.79-2.3,1.041-4.831-.52-4.831-1.041-3.716-2.155-3.345-.892-1.858-2.3-2.453-.669-4.756-3.122-3.568-1.486-1.412,1.115-6.392-3.345-4.608-2.973-2.379-5.277,3.047.669-.446-2.453-2.23-2.453-.595-3.865-5.723-5.649-7.061-1.858-2.156-3.716-3.493-2.23-1.115-1.338-1.338-2.676-.372-1.858-2.75-1.115-1.115.52-2.3-4.459.818-1.041-.892-1.115,3.047-2.23,2.378-.966,4.311.669.446-3.047,4.757-.52.743-1.932,5.128-2.527.149-1.041L1392,209.6l2.155-1.189-6.541-8.176,6.764-1.858,1.486-1.041-.743-8.4,8.027,1.561,1.189-2.155-1.858-4.608,2.824-.446,1.412-3.122,1.264-.372,2.453,3.27,4.236,2.453,6.095,1.709,4.311,3.79,1.04,5.426,2.23,2.081,4.831.818,5.351.595,5.946,2.973,2.527.52,3.716,4.311,3.493,2.824,4.162-.149,8.4,1.115,4.757-.669,4.162.669,6.986,2.9h4.608l2.453,1.412,3.27-2.527,5.351-1.635,5.649-.149,3.642-1.635,1.487-2.527,1.784-1.635-1.412-1.561-2.156-1.784.372-3.047,2.378.446,4.385.966,2.378-2.527,4.757-1.784.966-3.122,1.858-1.338,5.054-.595,3.27.52-.595-1.635-5.351-3.27-3.865-1.486-1.858,1.709-4.088-.743-1.71.595-2.081-1.858-.223-4.682-.446-3.493,5.5,1.784,3.27-2.9-1.412-2.081-.149-4.831.966-1.486-1.858-2.527-2.75-1.041,1.264-2.3,3.79-.818,4.608-.149,6.392,1.412,4.459,1.635,5.723,4.608,2.824,2.007,3.344,2.824,4.608,4.459Z" transform="translate(-135.523 -38.644)" fill="#09a3bf"/>
      <path id="CI" d="M951.227,434.969l1.858,1.041.743,1.635,1.858.966,1.487-1.189,1.932-.149,2.9,1.189,1.115,6.838-1.784,3.939-1.115,5.426L962,458.752l-.149,1.932h-1.932l-2.9-.892h-2.75l-4.98.892-2.9,1.338-4.162,1.784-.818-.149.3-3.939.446-.595-.149-1.858-1.784-2.007-1.338-.3-1.189-1.338.892-2.155-.372-2.3.149-1.338h.669l.3-2.081-.3-.966.372-.669,1.561-.52-1.041-3.865-.966-1.932.372-1.635.818-.372.595-.446,1.115.743h3.27l.743-1.338.743.074,1.189-.52.669,2.007.966-.595Z" transform="translate(-23.931 -108.896)" fill="#09a3bf"/>
      <path id="CM" d="M1062.94,445.239l-2.081,4.831-1.04.818-.3,3.716.446,2.007-.372,1.412,2.007,2.527.372,1.709,1.561,2.453,1.932,1.561.223,2.155.446,1.412-.3,2.527-3.344-1.115-3.419-1.263-5.277-.149-.52-.3-2.527.595-2.527-.595-2.007.3-6.912-.074.669-3.79-1.709-3.2-1.932-.743-.818-2.155-1.115-.669.074-1.338,1.041-3.419,2.006-4.608h1.189l2.527-2.824,1.561-.074,2.378,2.007,2.9-1.635.372-2.007.966-1.932.594-2.378,2.23-1.932.818-3.345.892-1.115.595-2.453,1.041-3.047,3.493-3.716.223-1.561.446-.892-1.709-1.858.149-1.561,1.115-.223,1.709,3.047.372,3.122-.149,3.2,2.378,4.311h-2.378l-1.189.3-1.932-.446-.892,2.23,2.527,2.824,1.858.818.595,1.932,1.338,3.27-.595,1.338Z" transform="translate(-48.76 -105.044)" fill="#09a3bf"/>
      <path id="CD" d="M1119.218,468.174l2.6,3.939,1.932.595,1.115-.818,1.932.3,2.3-.966,1.041,2.007,3.791,3.2-.223,5.574,1.709.669-1.412,1.635-1.561,1.338-1.635,2.453-.892,2.23-.223,3.79-.966,1.858-.074,3.568-1.189,1.338-.149,2.824-.595.372-.446,2.676,1.041,2.155.074.743-.892,7.655,1.115,2.676-.743,2.007,1.338,3.419,2.527,2.6.52,2.6,1.189,1.264-.223.818-.669-.223-5.723.818-1.115.594-1.263,3.047.892,2.081-.818,5.649-.669,4.757,1.115.892,2.9,1.858,1.189-.892.149,5.128h-3.2l-1.635-2.6-1.486-2.081-3.2-.669-.892-2.453-2.6,1.487-3.27-.669-1.412-2.155-2.6-.446-2.006.074-.223-1.487-1.412-.074-1.932-.3-2.6.743-1.784-.149-1.041.446.3-5.649-1.338-1.784-.3-2.973.669-2.9-.817-1.784-.074-3.047-5.054.074.372-1.709h-2.155l-.223.818-2.6.223-1.115,2.75-.669,1.189-2.3-.669-1.338.669-2.824.372-1.561-2.453-.966-1.561-1.189-2.9-.966-3.493-12.412-.074-1.486.52-1.263-.074-1.71.669-.595-1.486,1.041-.52.149-2.081.743-1.189,1.487-1.041,1.115.52,1.487-1.858,2.3.074.223,1.338,1.561.818,2.527-2.973,2.453-2.3,1.04-1.561-.074-3.939,1.858-4.608,1.932-2.453,2.75-2.3.52-1.486.074-1.784.669-1.635-.223-2.75.52-4.236.818-2.973,1.263-2.527.223-2.9.372-3.345,1.635-2.378,2.23-1.561,3.493,1.635,2.676,1.784,3.047.446,3.2.966,1.189-2.9.594-.372,1.932.446,4.682-2.378,1.635,1.041,1.338-.149.669-1.189,1.561-.372,3.121.52,2.75.074,1.338-.52Z" transform="translate(-54.127 -117.574)" fill="#09a3bf"/>
      <path id="CG" d="M1080.193,478.94l-.223,2.9-1.263,2.527-.818,2.973-.52,4.236.223,2.75-.669,1.635-.074,1.784-.52,1.486-2.75,2.3-1.932,2.453-1.858,4.608.074,3.939-1.041,1.561-2.453,2.3-2.527,2.973-1.561-.818-.223-1.338-2.3-.074L1058.268,519l-1.115-.52-1.561-1.635-1.263.818-1.709,2.081-3.419-5.054,3.2-2.676-1.561-3.122,1.487-1.189,2.824-.595.3-2.155,2.3,2.3,3.716.223,1.264-2.23.52-3.2-.446-3.716-2.007-2.824,1.858-5.574-1.041-.892-3.122.372-1.189-2.453.3-2.081,5.277.149,3.419,1.263,3.345,1.115.3-2.527,2.229-4.459,2.453-2.527,2.9.818,2.676.223Z" transform="translate(-52.561 -120.091)" fill="#09a3bf"/>
      <path id="CZ" d="M1056.311,175.174l1.858,1.486,2.75.372-.149,1.264,2.081.966.446-1.189,2.527.52.52,1.486,2.75.223,1.932,2.3h-1.115l-.52.818-.818.223-.149,1.041-.669.223-.074.446-1.189.446-1.635-.074-.446,1.041-1.784-.892-1.709.223-2.973-1.412-1.264.372-1.932,1.932-2.824-1.561-2.23-1.932-1.932-1.115-.52-2.007-.743-1.338,2.527-.966,1.263-1.189,2.6-.892.818-.892.966.52Z" transform="translate(-51.867 -42.341)" fill="#09a3bf"/>
      <path id="DE" d="M1044.015,157l1.04,2.3-.892,1.263,1.412,1.561,1.115,2.453-.149,1.635,1.784,2.9-1.635.446-.966-.52-.818.892-2.6.892-1.263,1.189-2.527.966.743,1.338.52,2.007,1.932,1.115,2.23,1.932-1.189,2.155-1.263.595.743,3.047-.3.818-1.263-.966-1.784-.149-2.6.818-3.27-.223-.446,1.264-2.007-1.264-1.041.223-4.088-1.412-.743.966h-3.122l.3-3.345,1.784-3.122-5.351-.892-1.784-1.189.149-2.007-.743-1.041.3-3.122-.818-4.831h2.156l.892-1.709.669-4.162-.669-1.561.595-.966,2.973-.223.743.966,2.3-2.23-.966-1.709-.3-2.527,2.75.595,2.155-.669.223,1.709,3.642,1.041.074,1.635,3.493-.892,1.932-1.189,4.162,1.784,1.784,1.412Z" transform="translate(-43.882 -36.281)" fill="#09a3bf"/>
      <path id="DJ" d="M1227.343,426.172l-1.412,2.6-.966-.892-.966.372-2.378-.074-.149-1.486-.371-1.338,1.338-2.23,1.412-2.081,1.784.446,1.264-1.189,1.041,1.486-.074,1.932-2.3,1.189,1.784,1.264Z" transform="translate(-96.699 -105.301)" fill="#09a3bf"/>
      <path id="Path_1140" data-name="Path 1140" d="M1043.917,146.9l-1.784,3.642-3.865-2.6-.669-1.858,5.054-1.486Z" transform="translate(-49.582 -34.51)" fill="#09a3bf"/>
      <path id="Path_1141" data-name="Path 1141" d="M1030.963,147.238l-2.155.669-2.75-.595-1.561-2.527-.3-4.534.446-1.264.966-1.338,2.973-.223,1.189-1.263,2.676-1.264v2.3l-.892,1.486.52,1.189,1.932.669-.743,1.709-1.041-.446-2.3,3.2Z" transform="translate(-46.141 -32.019)" fill="#09a3bf"/>
      <path id="DZ" d="M1007.3,264.318l-.743,2.453.743,4.534-.818,3.939-2.378,2.676.446,3.568,3.344,2.9.074,1.115,2.527,1.932,1.932,8.547,1.412,4.236.3,2.23-.595,3.865.3,2.23-.446,2.6.446,2.973-1.635,2.007,2.527,3.493.149,2.007,1.561,2.676,1.858-.892,3.345,2.23,1.858,2.973-13.973,9.142-11.892,9.365-5.8,2.081-4.608.52-.074-3.047-1.932-.818-2.6-1.338-.966-2.23-13.9-10.405-13.824-10.405L938.7,309.878l.074-.892.074-.3.074-5.649,6.615-3.568,4.014-.743,3.344-1.263,1.561-2.378,4.757-1.858.223-3.568,2.3-.446,1.858-1.709,5.277-.818.743-1.858-1.041-1.041-1.412-5.054-.223-2.9-1.412-3.047,3.79-2.6,4.311-.818,2.453-1.932,3.79-1.486,6.689-.818,6.54-.372,2.007.669,3.642-1.858,4.236-.074,1.635,1.115,2.676-.3Z" transform="translate(-24.188 -65.04)" fill="#09a3bf"/>
      <path id="EG" d="M1158.928,300.784l2.9,6.986.52,1.189-.967,1.932-.52,3.568-.892,2.527-.892.818-1.486-1.561-2.007-2.081-3.493-6.838-.372.446,2.081,4.98,2.9,4.831,3.642,7.432,1.71,2.6,1.486,2.676,4.013,5.277-.743.818.3,3.122,5.054,4.311.818.966H1124l-.743-17.615-.966-16.946-1.487-3.865.818-2.9-.743-2.081,1.263-2.3,5.351-.074,4.014,1.264,4.088,1.412,1.932.743,2.973-1.486,1.561-1.338,3.493-.446,2.9.595,1.338,2.378.818-1.561,3.27,1.115,3.2.3,1.858-1.189Z" transform="translate(-70.945 -74.155)" fill="#09a3bf"/>
      <path id="ER" d="M1218.989,411.57l-1.264,1.189-1.784-.446-1.486-1.561L1212.6,408l-1.932-1.561-1.115-1.635-3.716-1.932-2.9-.074-1.041-.966-2.378,1.115-2.676-2.155-1.115,3.567-4.905-1.04-.52-1.858,1.487-7.061.223-3.122,1.263-1.486,2.973-.818,2.007-2.676,2.676,5.5,1.412,4.385,2.378,2.3,5.946,4.534,2.453,2.676,2.378,2.824,1.338,1.635Z" transform="translate(-88.791 -96.571)" fill="#09a3bf"/>
      <path id="EE" d="M1108.333,124.395l.669.743-1.932,2.527,1.784,4.162-1.189,1.412-2.824-.074-3.27-1.635-1.561-.52-2.824.743-.074-2.6-1.115.595-2.453-1.561-.743-2.527,4.088-1.263,4.162-.595,3.79.669,3.493-.074Z" transform="translate(-63.756 -29.169)" fill="#09a3bf"/>
      <path id="ET" d="M1198.39,407.807l2.9.074,3.716,1.932,1.115,1.635,1.932,1.561,1.858,2.75,1.486,1.561-1.412,2.081-1.338,2.23.372,1.338.149,1.486,2.378.074.966-.372.966.892-.892,1.635,1.635,2.676,1.635,2.3,1.635,1.709,13.9,5.649,3.568-.074-11.594,14.344-5.426.223-3.716,3.344-2.676.074-1.115,1.561h-2.9l-1.709-1.635-3.865,2.007-1.189,2.007-2.824-.446-.966-.52-.966.149-1.338-.074-5.351-4.013h-2.973l-1.412-1.561-.074-2.676-2.156-.818-2.6-5.2-1.932-1.115-.743-1.932-2.23-2.3-2.6-.372,1.412-2.676,2.23-.149.595-1.412-.149-3.716v-.595l1.115-4.98,1.932-1.338.372-1.932,1.709-3.716,2.453-2.3,1.486-4.757.52-4.088,4.905,1.041,1.115-3.568,2.676,2.155,2.378-1.115,1.041.966Z" transform="translate(-84.246 -101.578)" fill="#09a3bf"/>
      <path id="FI" d="M1095.7,68.585l.3,2.824,5.426,2.75-2.156,3.122,4.831,4.682-1.263,3.568,3.642,3.122-.669,2.824,5.5,2.9-.669,2.155-2.527,2.527-5.946,5.5-5.946.372-5.649,1.561-5.277.966-2.378-2.378-3.493-1.412.074-4.311-2.23-3.865,1.189-2.527,2.453-2.6,6.54-4.608,1.933-.892-.669-1.784-4.831-1.932-1.338-1.635-1.338-6.317-5.351-2.75-4.459-2.007,1.635-1.041,3.79,2.081,3.939-.149,3.493.966,2.527-1.784.818-2.973,4.385-1.338,4.311,1.561-.595,2.824Z" transform="translate(-58.261 -13.866)" fill="#09a3bf"/>
      <path id="GA" d="M1054.26,487.2l-.3,2.081,1.189,2.453,3.121-.372,1.041.892-1.858,5.574,2.007,2.824.446,3.716-.52,3.2-1.263,2.23-3.716-.223-2.3-2.3-.3,2.155-2.824.595L1047.5,511.2l1.561,3.121-3.2,2.676-4.311-4.831-2.75-3.939-2.6-4.905.149-1.635.966-1.486.966-3.493.892-3.568,1.412-.223h6.094V487.2l2.007-.3,2.527.595,2.527-.595.52.3Z" transform="translate(-49.222 -122.402)" fill="#09a3bf"/>
      <path id="Path_1142" data-name="Path 1142" d="M955.031,156.172l-2.6-.892-2.23.074.892-2.453-.669-2.378,2.973-.223,3.642,2.824Z" transform="translate(-27.14 -35.973)" fill="#09a3bf"/>
      <path id="Path_1143" data-name="Path 1143" d="M968.774,129.5l-3.791,4.831,3.493-.595h3.79l-.966,3.642-3.2,4.013,3.642.223.223.52,3.121,5.277,2.378.743,2.155,5.2,1.041,1.784,4.385.818-.446,2.973-1.784,1.338,1.412,2.378-3.27,2.378-4.831-.074-6.243,1.338-1.635-.966-2.453,2.155-3.345-.52-2.676,1.784-1.858-.892,5.426-4.831,3.27-1.041-5.649-.743L960,159.378l3.791-1.412-1.858-2.453.743-2.973,5.277.446.594-2.676-2.3-2.75-.074-.074-4.236-.818-.818-1.189,1.338-2.007-1.115-1.263-1.932,2.155-.074-4.385-1.635-2.23,1.412-4.608,2.824-3.568,2.676.3Z" transform="translate(-29.066 -30.633)" fill="#09a3bf"/>
      <path id="GE" d="M1209.435,226.513l3.79.966,1.561,1.932,2.676,1.115-.892.595,2.453,2.6-.446.52-2.155-.223-3.122-1.412-.818.818-5.2.743-4.162-2.378-4.088.223.223-2.007-1.561-3.2-2.527-1.784-2.23-.52-1.635-1.412.3-.595,3.419.818,5.723.743,5.649,2.3.892.892,2.156-.743Z" transform="translate(-89.047 -54.512)" fill="#09a3bf"/>
      <path id="GH" d="M981.75,430.972l-.3,1.486,1.709,2.453V438.4l.446,3.716,1.04,1.784-.966,4.236.372,2.378,1.115,3.047.966,1.709-6.615,2.75-2.378,1.635-3.79,1.412-3.716-1.338.149-1.932L968,453.715l1.115-5.426,1.784-3.939-1.115-6.838-.595-3.567.149-2.75,7.284-.223,1.858.372,1.338-.743,1.932.372Z" transform="translate(-31.711 -107.946)" fill="#09a3bf"/>
      <path id="GN" d="M916.236,421.669l.223,1.784h.669l1.115-.669.669.149L920.1,424.2l1.784.372,1.115-1.04,1.412-.669.966-.669.818.149.966,1.041.446,1.338,1.709,2.007-.818,1.189-.223,1.561.892-.446.52.52-.223,1.412,1.263,1.412-.818.372-.372,1.635.966,1.932,1.04,3.865-1.561.52-.372.669.3.966-.3,2.081h-.669l-1.189-.149-.818,1.932H925.75l-.817-1.04.3-1.932-1.784-2.9-1.041.52-.966.149-1.115.223.074-1.709-.669-1.263.149-1.412-.892-2.007-1.189-1.709h-3.344l-.966.892-1.189.149-.743,1.04-.446,1.263-2.3,2.155-1.784-2.824-1.635-1.858-1.041-.669L903.3,432.3l-.446-2.081-.595-1.041L901,428.358l1.932-2.3,1.263.074,1.115-.743.892-.074.669-.595-.3-1.561.446-.52.074-1.635,2.007.074,3.047,1.115.892-.074.3-.52,2.3.372.595-.3Z" transform="translate(-14.508 -105.481)" fill="#09a3bf"/>
      <path id="GM" d="M891.6,416.193l.595-2.155,4.534-.074.966-1.189,1.338-.074,1.635,1.189h1.264l1.412-.743.818,1.338L902.3,415.6l-1.784-.149-1.784-.966-1.561,1.115h-.743l-1.041.669-3.79-.074Z" transform="translate(-12.094 -103.349)" fill="#09a3bf"/>
      <path id="GW" d="M904.886,420.923l-.074,1.635-.446.52.3,1.561-.669.595-.892.074-1.115.743-1.263-.074-1.932,2.3-2.155-1.932-1.784-.372-.966-1.338.074-.743-1.264-.966-.3-1.041,2.23-.743,1.412.149,1.115-.595Z" transform="translate(-12.299 -105.404)" fill="#09a3bf"/>
      <path id="GQ" d="M1047.424,487.274V493h-6.094l-1.412.223-.817-.669,1.412-5.351Z" transform="translate(-49.967 -122.479)" fill="#09a3bf"/>
      <path id="Path_1144" data-name="Path 1144" d="M1112.495,272.6l2.3,1.635,3.047-.3,2.973.3v.892l2.081-.595-.371,1.412-5.649.372-.075-.743-4.905-.966Z" transform="translate(-68.66 -67.376)" fill="#09a3bf"/>
      <path id="Path_1145" data-name="Path 1145" d="M1114.171,238.257l-2.378-.149-2.007-.446-4.608,1.189,2.973,2.676-1.858.818h-2.155l-2.3-2.453-.669,1.041,1.189,2.824,2.155,2.23-1.412,1.041,2.378,2.155,2.081,1.412.3,2.676-3.716-1.264,1.338,2.453-2.453.446,1.858,4.236-2.6.074-3.419-2.081-1.784-3.79-.966-3.2-1.709-2.155-2.23-2.75-.372-1.338,1.635-2.3.074-1.561,1.264-.669-.074-1.263,2.527-.372,1.338-1.04,2.081.074.594-.818.743-.149,2.824.149,2.973-1.338,2.9,1.709,3.419-.446-.223-2.378,2.007,1.263-.818,2.973Z" transform="translate(-63.499 -57.336)" fill="#09a3bf"/>
      <path id="HR" d="M1074.875,206.65l1.115,1.858,1.263,1.338-1.263,1.784-1.784-1.041-2.6.074-3.345-.818-1.709.074-.743,1.041-1.486-1.115-.595,1.932,2.007,2.23.966,1.412,1.858,1.784,1.561,1.041,1.561,2.007,3.568,1.784-.372.743-3.716-1.709-2.378-1.709-3.568-1.412-3.493-3.419.743-.372-1.858-2.007-.223-1.561-2.453-.743-1.041,2.007-1.189-1.561v-1.635l.074-.074,2.675.149.595-.743,1.338.743,1.486.074-.074-1.263,1.263-.52.223-1.858,2.9-1.263,1.189.595,2.973,2.007,3.2.892,1.338-.743Z" transform="translate(-54.23 -49.736)" fill="#09a3bf"/>
      <path id="HU" d="M1088.908,191.566l2.23,1.263.372,1.264-2.155.966-1.412,3.122-1.932,3.2-2.9.892-2.378-.223-2.75,1.189-1.338.743-3.2-.892-2.973-2.007-1.189-.595-.892-1.561-.594-.074.966-2.973-.818-1.041h2.081l.149-1.932,2.007,1.264,1.412.446,3.047-.52.223-.966,1.412-.149,1.71-.669.446.3,1.709-.595.743-1.115,1.189-.3,4.088,1.412.743-.446Z" transform="translate(-57.337 -46.321)" fill="#09a3bf"/>
      <path id="Path_1158" data-name="Path 1158" d="M1569.948,520.707l-4.608.074L1562,516.842l-5.277-3.939-1.709-2.9-3.047-3.865-2.007-3.567-3.122-6.689-3.642-4.013-1.263-4.088-1.635-3.716-3.865-2.973-2.3-4.088-3.27-2.676-4.608-5.277-.446-2.453,2.675.223,6.615.892,3.865,4.682,3.419,3.27,2.378,1.932,4.088,5.128,4.311.074,3.567,3.27,2.527,4.013,3.2,2.23-1.709,3.865,2.453,1.635,1.487.149.669,3.345,1.412,2.6,3.047.446,1.932,3.047-1.263,5.946Z" transform="translate(-174.937 -117.189)" fill="#09a3bf"/>
      <path id="IN" d="M1411.141,299.244l-2.081,2.23-.669,4.459,4.311,1.784,4.311,2.3,5.8,2.676,5.723.669,2.824,2.378,3.2.446,5.128,1.115,3.419-.074.074-1.858-1.115-3.047-.149-2.007,2.3-1.041,1.115,3.79.3.892,4.088,1.858,2.378-.743,3.493.3,3.345-.149-.372-2.9-1.932-1.561,3.122-.595,2.9-3.568,4.013-2.973,3.642,1.115,2.378-2.007,2.676,2.973-.892,2.007,4.534.743.743,1.784-1.263.892,1.041,2.9-3.122-.818-4.608,3.27.669,2.75-1.486,4.013.223,2.3-1.189,3.939-3.419-1.115.669,4.98-.743,1.635.743,2.007-1.858,1.115-3.27-7.581h-1.115l-.223,3.122-2.676-2.527.892-2.676,1.784-.3,1.189-4.013-2.527-.818-3.791.074-4.013-.669-.892-3.345-2.007-.223-3.642-2.081-.892,3.27,3.419,2.527-2.23,1.784-.669,1.709,2.75,1.264-.223,2.9,1.932,3.567,1.189,3.939-.372,1.784-2.824-.074-4.905.966.669,3.568-1.784,2.824-5.574,3.27-3.939,5.574L1428.83,359l-3.716,3.122.223,2.155-1.932,1.189-3.568,1.709-1.932.223-.892,3.642,1.412,6.243.521,3.939-1.412,4.534.52,8.1-2.156.223-1.709,3.642,1.412,1.635-3.79,1.338-1.264,3.2-1.635,1.412-4.162-4.459-2.3-6.689-1.858-4.831-1.635-2.23-2.527-4.608-1.487-5.946-1.041-2.973-4.385-6.54-2.6-9.29-1.932-6.094-.595-5.8-1.263-4.459-5.723,2.9-2.973-.595-6.02-5.8,1.784-1.709-1.412-1.858-5.277-4.088,2.378-3.2h8.993l-1.338-4.088-2.6-2.378-1.041-3.716-2.973-2.081,3.642-5.054,4.831.372,3.344-4.98,1.635-4.831,2.9-4.831-.743-3.419,2.824-2.75-3.791-2.3-2.156-3.27-2.453-4.162,1.486-2.081,6.318,1.189,4.237-.743,2.824-4.013,5.723,5.649.594,3.865,2.23,2.453.446,2.453-3.047-.669,2.378,5.277,4.608,2.973Z" transform="translate(-133.263 -67.71)" fill="#09a3bf"/>
      <path id="IE" d="M951.873,156.249l.52,3.27-2.9,4.088-6.54,2.676-5.054-.669,3.2-4.757-1.561-4.608,4.979-3.568,2.75-2.081.669,2.378-.892,2.453,2.23-.074Z" transform="translate(-23.982 -36.05)" fill="#09a3bf"/>
      <path id="IR" d="M1226.047,251.582l1.338-.149,3.939-3.493,1.412-.372,1.412,1.412-.892,2.3,2.9,2.527.966-.3,1.858,3.568,3.939.966,3.2,2.378,5.723.818,5.946-1.263.148-1.115,3.27-.892,2.229-2.75,2.676.149,1.486-.892,2.9.446,4.906,2.453,3.2.52,5.426,4.162,2.973.223,1.263,3.939-.446,5.946-.372,3.493,1.858.743-1.189,2.6,2.007,3.79.892,3.047,3.2.818.818,3.047-2.9,4.311,2.378,2.527,2.081,2.9,4.236,2.081.743,4.162,2.007.818.669,2.155-5.574,2.527-.818,5.5-7.878-1.412-4.608-1.115-4.683-.595-2.453-5.872-2.081-.818-3.047.818L1269.3,310l-5.2-1.561-4.534-3.716-4.088-1.338-3.27-4.534-3.865-6.317-2.081.743-2.75-1.561-1.264,1.858-2.6-2.527-.372-2.527h-1.263l.148-3.493-2.6-3.567-5.277-2.676-3.419-4.534.372-3.716,1.709-1.635-.669-2.75-2.824-1.486-3.493-5.649-2.824-3.79.52-1.486-2.155-5.426,2.453-1.412.892,1.858,2.378,2.155,2.824.669Z" transform="translate(-95.775 -60.777)" fill="#09a3bf"/>
      <path id="IQ" d="M1216.182,262.841l3.493,5.649,2.824,1.486.669,2.75-1.709,1.635-.372,3.716,3.419,4.534,5.277,2.676,2.6,3.567-.149,3.493h1.264l.372,2.527,2.6,2.527-2.453-.223-2.75-.446-2.453,4.608-7.581-.372-12.486-9.588-6.392-3.345L1197.3,286.7l-2.3-5.8,8.175-4.98.743-5.723-.892-3.493,2.007-1.189,1.561-2.973,1.561-.743,4.682.669,1.561,1.189,1.784-.818Z" transform="translate(-89.998 -64.603)" fill="#09a3bf"/>
      <path id="IL" d="M1177.3,288.2l.3,1.932-.446.743h.074l-.52,1.486-1.561-.595-.52,3.122,1.115.52-.966.669-.074,1.263,1.858-.595.3,1.858-1.338,7.581L1175,305l-2.9-6.986,1.041-1.561-.3-.3.817-2.23.446-3.567.446-1.264h1.412l.3-.818,1.041-.074Z" transform="translate(-84.118 -71.382)" fill="#09a3bf"/>
      <path id="Path_1159" data-name="Path 1159" d="M1064.066,256.4l-1.264,3.79.669,1.412-.669,2.453-3.121-1.784-2.007-.52-5.574-2.378.372-2.453,4.608.446,4.013-.52Z" transform="translate(-53.305 -63.216)" fill="#09a3bf"/>
      <path id="Path_1160" data-name="Path 1160" d="M1032.813,237.4l2.453,3.344-.3,6.318-1.784-.3-1.561,1.561-1.486-1.264-.372-5.723-.966-2.676,2.155.223Z" transform="translate(-47.322 -58.338)" fill="#09a3bf"/>
      <path id="Path_1161" data-name="Path 1161" d="M1046.836,202.924l-.3,2.3,1.041,2.007-3.047-.743-2.9,1.709.3,2.3-.371,1.338,1.412,2.378,3.716,2.378,2.155,3.939,4.534,3.79,2.973-.074,1.04,1.04-1.04.966,3.567,1.709,2.973,1.412,3.493,2.527.446.818-.595,1.709-2.3-2.23-3.419-.743-1.412,3.047,2.9,1.784-.3,2.453-1.561.3-1.858,4.088-1.635.372-.074-1.486.669-2.527.818-1.041-1.709-2.75-1.338-2.378-1.635-.595-1.338-2.007-2.527-.892-1.784-1.932-2.824-.3-3.2-2.081-3.642-3.122-2.75-2.676-1.412-4.682-1.932-.52-3.122-1.561-1.709.595-2.156,2.23-1.561.3.372-2.007-2.081-.595-1.115-3.642,1.263-1.412-1.115-1.784.074-1.338,1.635,1.041,1.858-.223,2.007-1.635.669.743,1.784-.149.743-1.858,2.824.595L1033.9,203l.223-1.858,2.3.669.372-.892,3.642-.818.966,1.561Z" transform="translate(-45.217 -48.76)" fill="#09a3bf"/>
      <path id="JO" d="M1192.605,293.3l-.669.743-7.729,2.378,4.459,4.831-1.189.743-.52,1.635-3.047.669-.817,1.709-1.561,1.486-4.608-.818-.223-.669,1.338-7.581-.3-1.858.446-1.412-.3-2.973.52-1.486,4.682,1.932,7.209-5.128Z" transform="translate(-85.299 -71.202)" fill="#09a3bf"/>
      <path id="Path_1162" data-name="Path 1162" d="M1705.855,282.241l1.189,1.635-.966,2.9-2.3-1.561-1.561,1.115.074,2.75-3.2-1.338-.892-2.23.966-2.9,2.527.595.743-2.007Z" transform="translate(-219.203 -69.584)" fill="#09a3bf"/>
      <path id="Path_1163" data-name="Path 1163" d="M1720.159,256.442l.446,3.79,1.858,2.378-.446,3.345-4.014,2.23-6.838.3-3.27,5.5-3.493-1.858-1.784-3.568-6.392,1.041-3.79,2.23-4.608.149,5.5,3.493.595,8.1-1.858,2.007-2.676-1.858-.669-4.311-3.047-1.338-2.973-3.27,3.2-1.486.818-3.047,2.9-2.453,1.486-3.27,7.209-1.412,4.683.966v-8.473l3.79,2.3,3.344-4.757,1.263-1.858-.743-5.8-3.791-5.351-.148-2.973,3.567-.892,6.094,6.615,2.081,3.79-.966,4.831Z" transform="translate(-215.223 -58.055)" fill="#09a3bf"/>
      <path id="Path_1164" data-name="Path 1164" d="M1717.143,216.366l3.345.966,1.338-1.932,4.46,5.277-4.757,1.264-.3,4.682-8.1-3.2,1.189,5.128-4.237.074-3.493-4.682-.446-3.642,3.865-.223-3.27-6.54L1705.4,209.9l7.8,4.905Z" transform="translate(-221.052 -51.277)" fill="#09a3bf"/>
      <path id="KZ" d="M1307.257,157.547l3.27-.223,6.838-4.311-.595,1.486,6.243,3.493,13.6,11.594.818-2.378,6.243,2.6,4.608-1.189,2.453.818,3.047,2.676,2.973.892,2.453,2.007,4.459-.669,3.27,2.824-1.412,3.122-2.824.446,1.858,4.608-1.189,2.155-8.027-1.561.743,8.4-1.486,1.041-6.763,1.858,6.54,8.176-2.155,1.189,1.264,2.75-2.6-.743-2.527-1.709-5.872-.446-6.392-.149-1.189.52-6.095-2.007-1.858,1.041.371,2.75-6.838-1.635-2.3.669-.223,2.081-1.932.892-4.014,3.27-.669,3.419h-1.486l-1.709-2.23-4.98-.149-1.858-3.865-1.932-.074-1.115-4.757-5.649-3.419-6.392.372-4.236.669-4.905-4.236-3.568-1.784-6.838-3.345-.818-.372-8.919,2.75,4.608,17.392-1.933.223-3.568-3.716-2.9-1.338-4.162.966-1.338,1.635-.446-1.189.446-1.932-1.115-1.635-4.831-1.635-2.75-4.236-2.378-1.189-.446-1.561,3.791.446-.743-3.419,3.047-.743,3.493.669-.52-4.534-1.412-2.9-3.716.223-3.493-1.115-3.79,2.007-3.27,1.041-2.081-.818-.149-2.378-3.2-3.122-2.676.149-3.939-3.122,1.263-3.568-1.338-.892,1.635-5.128,4.459,2.676-.446-3.345,6.02-4.98,5.648-.149,8.919,3.2,4.905,1.858,3.27-1.932,5.723-.074,5.426,2.378.595-1.412,5.2.223.148-2.155-6.986-3.2,2.6-2.23-1.115-1.189,2.973-1.189-3.79-3.122,1.041-1.561,12.635-1.561,1.263-1.115,8.1-1.709,2.3-1.858,6.763.966,3.27,4.682,3.2-1.115,5.277,1.561.817,2.453Z" transform="translate(-95.749 -35.639)" fill="#09a3bf"/>
      <path id="KE" d="M1211.945,474.081l-3.642,5.351.149,17.392,2.453,3.939-2.973,1.932-1.041,2.007-1.635.3-.594,3.419-1.412,1.932-.818,3.122-1.709,1.561-6.02-4.757-.223-2.75-15.236-9.736.3-3.493-1.04-1.858v-.223l1.189-1.932,2.081-3.122,1.561-3.493-1.932-5.5-.52-2.378-2.007-3.345,2.527-2.824,2.824-3.121,2.155.817.074,2.676,1.412,1.561h2.973l5.351,4.013,1.338.074.966-.149.966.52,2.824.446,1.189-2.007,3.865-2.007,1.709,1.635h2.9Z" transform="translate(-85.761 -117.164)" fill="#09a3bf"/>
      <path id="KG" d="M1387.431,228.634l-.149,1.04-5.128,2.527-.743,1.932-4.757.52-.446,3.047-4.311-.669-2.378.966-3.047,2.23.892,1.115-.818,1.04-7.135.743-5.277-1.561-4.088.372-.446-2.676,4.459.743,1.041-1.412,3.047.446,3.939-3.419-5.351-2.527-2.378,1.189-3.419-1.784,2.23-3.047-1.263-.446.223-2.081,2.3-.669,6.838,1.635-.372-2.75,1.858-1.041,6.094,2.007,1.189-.52,6.392.149,5.872.446,2.527,1.709Z" transform="translate(-129.694 -54.923)" fill="#09a3bf"/>
      <path id="KH" d="M1582.662,410.009l1.338,3.2.074,5.723-6.689,3.716,2.081,2.824-4.385.372-3.419,1.932-3.567-.669-1.932-2.527-2.6-4.905-1.561-5.8,2.3-3.939,5.277-.892,3.939.669,3.716,1.858,1.486-3.27,3.939,1.709Z" transform="translate(-184.231 -102.22)" fill="#09a3bf"/>
      <path id="KR" d="M1652.9,258.088v-.446l1.858.149.446-2.081,2.675-.3,1.486-.3V254l6.169,5.574,2.453,3.122,2.527,5.5-.372,2.6-3.2.892-2.3,2.007-3.419.372-1.561-2.6-.818-3.568-3.939-4.905,2.527-.818-4.534-4.088Z" transform="translate(-207.572 -62.6)" fill="#09a3bf"/>
      <path id="KW" d="M1245.7,309.246l1.115,2.081-.223,1.115,1.784,3.567-2.9.149-1.263-2.3-3.716-.446,2.453-4.608Z" transform="translate(-101.68 -76.671)" fill="#09a3bf"/>
      <path id="LA" d="M1577.912,396.991l-3.939-1.709-1.487,3.27-3.716-1.858,1.115-2.155-.3-4.013-3.939-4.162-.966-4.757-3.716-3.865-3.2-.3-.595,1.635-2.378.149-1.412-.818-3.939,2.824-.743-4.311.3-4.98-2.824-.223-.669-2.9-2.007-1.486.595-1.709,3.047-3.122.595,1.115,2.23.149-1.486-5.5,2.007-.669,2.973,3.79,2.6,4.311h5.054l2.23,4.162-2.453,1.263-.892,1.709,5.426,2.9,4.236,5.649,3.27,4.162,3.642,3.345,1.487,3.345-.149,4.757Z" transform="translate(-179.481 -89.201)" fill="#09a3bf"/>
      <path id="LB" d="M1178.176,285.94l-1.041.074-.3.818H1175.5l.966-3.939,1.635-3.344V279.4l1.858.223.892,1.858-2.007,1.858-.669,2.6Z" transform="translate(-84.99 -69.122)" fill="#09a3bf"/>
      <path id="LR" d="M934.235,451.088l-.148,1.338.371,2.3-.892,2.155,1.189,1.338,1.338.3,1.784,2.007.149,1.858-.446.595-.3,3.939-1.115.074-4.311-2.3-3.865-3.642-3.567-2.6L921.6,455.4l1.041-1.561.223-1.412L924.8,449.9l1.932-2.23.966-.149,1.04-.52,1.784,2.9-.3,1.932.818,1.041h1.189l.818-1.932,1.189.149Z" transform="translate(-19.797 -112.157)" fill="#09a3bf"/>
      <path id="LY" d="M1100.775,296.532l-1.263,2.3.743,2.081-.818,2.9,1.486,3.865.966,16.946.743,17.615.372,9.513h-4.757v2.007l-16.8-9.142-16.723-9.142-4.088,2.6-2.824,1.784-2.378-2.6-6.541-2.081-1.858-2.973-3.344-2.23-1.858.892-1.561-2.676-.148-2.007-2.527-3.493,1.635-2.007-.446-2.973.446-2.6-.3-2.23.595-3.865-.3-2.23-1.412-4.236,1.932-1.041.3-2.081-.446-1.932,2.676-1.858,1.189-1.561,1.932-1.338.074-3.642,4.757,1.635,1.709-.446,3.344.818,5.426,2.155,2.081,4.236,3.642.892,5.8,2.007,4.459,2.378,1.858-1.263,1.858-2.155-1.189-3.642,1.115-2.378,2.75-2.23,2.75-.595,5.5.966,1.486,2.081,1.486.074,1.338.818,4.014.52,1.115,1.561Z" transform="translate(-49.582 -71.613)" fill="#09a3bf"/>
      <path id="LK" d="M1443.563,456.043,1440,457.158l-2.155-3.791-1.04-6.838,1.486-7.73,3.047,2.6,2.081,3.345,2.3,4.98-.446,4.98Z" transform="translate(-152.084 -110.051)" fill="#09a3bf"/>
      <path id="LS" d="M1137.636,694.767l-1.486.52-2.75-3.716,2.378-2.973,2.3-1.858,2.007-1.04,1.635,1.486,1.263,1.486-1.412,2.3-.818,1.561-2.3.743-.818,1.487Z" transform="translate(-74.18 -173.447)" fill="#09a3bf"/>
      <path id="LT" d="M1104.45,146.445l.743,2.007-2.676,1.486-.372,2.527-3.567,1.709h-3.493l-1.041-1.412-1.858-.52-.446-1.115.149-1.263-1.635-.669-3.79-.818-1.263-3.791,3.79-1.338,5.872.3,3.344-.446.669.892,1.858.3,3.716,2.155Z" transform="translate(-61.804 -34.125)" fill="#09a3bf"/>
      <path id="LU" d="M1016.258,184.347l-1.041.074-.818-.372.3-2.6.966-.149.743,1.041Z" transform="translate(-43.625 -43.933)" fill="#09a3bf"/>
      <path id="LV" d="M1105.585,135.73l1.858.966.743,2.155,1.561,2.676-3.419,1.709-2.007.743-3.716-2.155-1.858-.3-.669-.892-3.344.446-5.872-.3-3.791,1.338-.372-3.345,1.264-2.824,3.047-1.486,3.27,3.345,2.75-.149.074-3.419,2.824-.743,1.561.52,3.27,1.635,2.824.074Z" transform="translate(-61.676 -31.66)" fill="#09a3bf"/>
      <path id="MA" d="M953.488,275.024l1.412,3.047.223,2.9,1.412,5.054,1.041,1.041-.743,1.858-5.277.818L949.7,291.45l-2.3.446-.223,3.568-4.757,1.858-1.561,2.378-3.345,1.263-4.013.743-6.615,3.567-.074,5.649h-.669l.074,2.527-2.527.149-1.338,1.115h-1.858L919,314.044l-3.419.52-1.412,3.716-1.338.372-2.007,6.02-5.872,5.128-1.487,6.615-1.784,2.155-.52,1.709-9.291.372H891.8l.223-2.23,1.635-1.263,1.412-2.527L894.847,333l1.487-3.345,2.378-3.047,1.412-.743,1.189-2.75.149-2.6,1.561-2.9,2.824-1.784L908.523,311l.074-.074,2.155-1.858,3.791-.52,3.27-3.27,2.081-1.264L923.387,300l-.892-5.872,1.635-4.162.669-2.527,2.676-3.2,4.014-2.155,3.047-2.007,2.75-4.905,1.338-2.973,2.9.074,2.3,2.007,3.79-.3,4.088,1.041Z" transform="translate(-12.145 -67.273)" fill="#09a3bf"/>
      <path id="MD" d="M1126.7,205.5l-.966-2.155.149-2.007-.446-2.007-2.527-2.824-1.486-1.932-1.338-1.338-1.189-.52.818-.669,2.378-.446,2.973,1.412,1.486.223,1.932,1.264-.074,1.561,1.487.743.817,1.932,1.486,1.189-.148.743.743.446-.966.372-2.23-.149-.446-.669-.743.372.446.818-.818,1.561-.446,1.561-.892.52Z" transform="translate(-70.457 -46.578)" fill="#09a3bf"/>
      <path id="MG" d="M1257.244,586.384l.3,5.723.966,2.23-.52,2.3-.892,1.338-1.189-2.75-.892,1.412.595,3.493-.52,2.081-1.264,1.041-.52,4.088-2.007,5.574-2.527,6.541-3.2,9.067-2.155,6.615-2.3,5.574-3.419,1.115-3.79,2.007-2.23-1.189-3.121-1.709-.892-2.527v-4.236l-1.115-3.791-.149-3.493.966-3.419,1.932-.818.149-1.561,2.156-3.642.595-3.047-.818-2.23-.595-3.047-.074-4.385,1.635-2.676.743-3.047,2.081-.149,2.378-.966,1.635-.892,1.784-.074,2.527-2.676,3.642-2.973,1.338-2.378-.446-2.081,1.784.594,2.453-3.27.223-2.9,1.486-2.155,1.338,2.081,1.041,2.007.892,3.2Z" transform="translate(-98.06 -146.076)" fill="#09a3bf"/>
      <path id="MK" d="M1102.136,234.982l-.743.149-.594.818-2.081-.074-1.338,1.04-2.527.372-1.71-1.115-.743-2.007.372-1.635.52.074.074-.966,2.155-.743.892-.223,1.263-.223,1.784-.149,2.081,1.561.594,3.122Z" transform="translate(-63.653 -56.515)" fill="#09a3bf"/>
      <path id="ML" d="M986.526,369.222l.074,11-2.3,3.2-.3,2.973-3.716.743-5.723.372-1.487,1.709-2.676.223h-2.676l-1.041-.892-2.3.669-3.939,2.007-.818,1.486-3.2,2.081-.595,1.263-1.784.966-2.007-.669-1.115,1.189-.669,3.27-3.345,3.939.149,1.635-1.189,2.007.3,2.75-1.784.743-.966.595-.669-2.007-1.189.52-.743-.074-.743,1.338H936.8l-1.115-.743-.595.446-1.263-1.412.223-1.412-.52-.52-.892.446.223-1.561.818-1.189-1.709-2.007-.446-1.338-.966-1.041-.818-.149-.966.669-1.412.669-1.115,1.041-1.784-.372-1.189-1.263-.669-.149-1.115.669h-.669l-.223-1.784.223-1.486-.372-1.784-1.486-1.338-.818-2.75L918,390.925l1.412-.892.743-2.824,1.338-.074,2.9,1.338,2.378-.966,1.561.3.669-1.041,16.723-.074.966-3.345-.743-.595-1.858-20.588L942.3,341.574l6.317-.074,13.824,10.405,13.9,10.405.966,2.23,2.6,1.338,1.932.818.074,3.047,4.608-.52Z" transform="translate(-18.872 -85.067)" fill="#09a3bf"/>
      <path id="MM" d="M1535.741,352.825l-3.047,3.122-.595,1.71-2.23,1.115-2.081,2.081-2.9.223-1.115,5.128-1.635.892,2.6,4.162,3.047,3.493,2.155,3.2-1.041,4.088-1.338.892,1.338,2.378,3.2,3.79.743,2.676.149,2.23,2.007,4.385-1.932,4.459-1.635,4.905-.669-3.568.966-3.642-1.635-2.824-.149-5.2-1.932-2.527-2.007-5.649-1.486-6.02-2.3-4.013-2.378,2.453-4.311,3.345-2.453-.372-2.676-1.115.669-5.946-1.486-4.459-3.939-5.5.223-1.709-2.527-.669-3.419-3.865-.818-3.865,1.561.743-.446-3.419,1.858-1.115-.743-2.007.743-1.635-.669-4.98,3.419,1.115,1.189-3.939-.223-2.3,1.487-4.013-.669-2.75,4.608-3.27,3.121.818-1.041-2.9,1.264-.892-.743-1.784,2.3-.372,2.007,2.824,2.007,1.115.966,3.642.669,3.939-3.121,4.013.52,5.649,4.162-.818,1.784,4.385,2.75.966-.595,3.939,3.345,1.784,1.932.892,2.824-1.412Z" transform="translate(-168.081 -79.521)" fill="#09a3bf"/>
      <path id="ME" d="M1088.263,226.045l-.595,1.041-1.041.446-.3-.892-1.412,2.3.372,1.561-.818-.372-1.264-1.561-1.709-.966.372-.743.3-2.6,1.189-1.115.669-.446,1.041.818.669.669,1.263.52,1.561.966-.3.372Z" transform="translate(-60.854 -54.563)" fill="#09a3bf"/>
      <path id="MN" d="M1476.711,178.393l2.973-.892,4.236-.595,4.013.669,4.905,2.155,3.642,2.378h3.419l5.054.743,2.676-1.189,4.385-.743,3.27-3.27,2.527.52,2.9,1.561,4.162-.446.446,3.493.223,4.682,2.081,1.858,1.709-.595,4.088.743,1.858-1.709,3.865,1.486,5.351,3.27.595,1.635-3.27-.52-5.054.595-1.858,1.338-.966,3.122-4.757,1.784-2.378,2.527-4.385-.966-2.378-.446-.372,3.047,2.155,1.784,1.412,1.561-1.784,1.635-1.486,2.527-3.642,1.635-5.649.149-5.351,1.635-3.27,2.527-2.453-1.412h-4.608l-6.987-2.9-4.162-.669-4.757.669-8.4-1.115-4.162.149-3.493-2.824-3.716-4.311-2.527-.52-5.946-2.973-5.351-.595-4.831-.818-2.23-2.081-1.04-5.426-4.311-3.791-6.094-1.709-4.236-2.453-2.453-3.27,3.493-.818,4.98-3.939,4.385-2.155,3.939,1.412,3.865.074,3.567,2.155,3.716.149,5.946,1.189,1.784-3.27L1453,174.157l.966-4.757,5.2,1.858,3.568.595,4.979,1.189,2.676,3.419,6.317,1.932Z" transform="translate(-147.847 -40.878)" fill="#09a3bf"/>
      <path id="MZ" d="M1163.9,646.437h-3.047l-.223-2.155-.446-2.155-.3-1.709,1.041-5.277-.818-3.419-1.635-6.689,4.608-5.426,1.264-3.419.594-.446.669-2.824-.595-1.412.3-3.568.966-3.27.3-6.094-2.081-1.486-2.007-.372-.818-1.189-1.932-.966-3.493.074-.149-1.784-.3-3.419,12.784-3.939,2.378,2.3,1.115-.446,1.635,1.189.149,1.932-.966,2.23.149,3.345,2.6,2.973,1.412-3.345,1.858-.966-.074-6.169-1.635-3.419-1.412-1.561h-.3l-.446-5.426,1.115-4.534,1.635-.149,4.98,1.338,1.115-.595,2.9-.149,1.561-1.412,2.527.074,4.608-1.858,3.419-2.75.669,2.081-.372,4.757.372,4.236-.149,7.432.595,2.3-1.412,3.419-1.784,3.345-2.75,2.973-3.939,1.784-4.831,2.3-4.905,5.128-1.635.892-3.122,3.419-1.709,1.04-.595,3.419,1.784,3.642.669,2.75v1.486l.743-.3-.372,4.682-.817,2.23.892.817-.743,2.007-1.784,1.709-3.493,1.561-5.128,2.6-1.858,1.784.223,2.007.966.3-.52,2.527Z" transform="translate(-79.932 -143.251)" fill="#09a3bf"/>
      <path id="MR" d="M941.817,337.494l-6.318.074,1.784,20.587,1.858,20.588.743.595-.966,3.345-16.723.074-.669,1.041-1.561-.3-2.378.966-2.9-1.338-1.338.074-.743,2.824-1.412.892-2.676-3.27-2.527-3.568-2.676-1.264-2.007-1.338h-2.3l-2.081,1.041-2.007-.372-1.486,1.487-.3-2.527,1.189-2.378.595-4.459-.3-4.757-.446-2.378.446-2.378-1.041-2.23-2.081-2.081.966-1.561h16.128l-.669-6.912,1.115-2.453,3.865-.372.149-12.263,13.378.3.149-7.284,15.236,11.594Z" transform="translate(-12.068 -81.062)" fill="#09a3bf"/>
      <path id="MW" d="M1179.168,581.762h.3l1.412,1.561,1.635,3.419.074,6.169-1.858.966-1.412,3.345-2.6-2.973-.149-3.345.966-2.23-.149-1.932-1.635-1.189-1.115.446-2.378-2.3-2.155-1.189,1.486-4.459,1.338-1.635-.669-4.014.966-3.865.743-1.264-.966-4.013-1.932-2.155,4.088.892.743,1.264-.074.595,1.338,3.047.149,5.723-1.338,2.676,1.189,3.493-.149,2.081.892,1.412-.074,1.784.669,1.041.743-1.189,1.412,1.858.149-.595-.743-2.527-.818-.223-.074-.669Z" transform="translate(-83.604 -141.454)" fill="#09a3bf"/>
      <path id="Path_1165" data-name="Path 1165" d="M1561.3,461.207l1.04.446,2.6,2.9,1.858,3.2.446,3.2-.372,2.155.446,1.635.371,2.824,1.561,1.338,1.709,4.236v1.561l-2.973.372L1563.9,481.5l-5.054-3.79-.595-2.453-2.527-3.2-.743-3.939-1.635-2.6.3-3.493-1.041-2.007.669-.818,3.568,2.081.446,2.453,2.75-.595Z" transform="translate(-181.818 -115.289)" fill="#09a3bf"/>
      <path id="NA" d="M1099.715,613.35l3.419-1.04,2.676.223,1.635,1.115v.372l-2.378,1.115H1103.8l-2.75,1.858-1.487-2.007-6.466,1.709-3.121.149-.595,17.02-4.088.149-.446,13.9-.818,17.615-3.716,2.453-2.156.372-2.527-.892-1.858-.372-.595-2.007-1.486-1.338-2.081,2.378-2.9-3.642-1.486-3.419-.743-4.682-.892-3.419-1.189-7.358.074-5.723-.446-2.6-1.561-2.007-2.081-3.939-2.081-5.723-.817-2.973-3.27-4.682-.223-3.642,2.007-.892,2.527-.817,2.676.149,2.453,2.155.595-.372,16.871-.149,2.824,2.23,10.034.669,7.73-1.932Z" transform="translate(-53.279 -154.164)" fill="#09a3bf"/>
      <path id="NE" d="M1047.9,354l1.189,7.432,1.635,1.263.074,1.486,1.784,1.635-.892,2.081-1.338,9.662-.149,6.243-5.2,4.459-1.709,6.318,1.784,1.784v3.047l2.75.074-.446,2.3-1.115.223-.149,1.561-.743.074-2.9-5.2-1.041-.223-3.2,2.676-3.27-1.412-2.23-.223-1.189.669-2.453-.149-2.453,2.007-2.156.149-5.054-2.453-2.007,1.115-2.155-.074-1.561-1.784-4.162-1.784-4.534.595-1.04.966-.595,2.75L1002.2,403.2l-.3,4.311-3.2-2.75h-1.486l-1.412,1.412.074-3.27-4.831-1.115-.149-2.3-2.3-3.122L988,394.207l.372-2.3,2.676-.223,1.487-1.709,5.723-.372,3.716-.743.3-2.973,2.3-3.2-.074-11,5.8-2.081,11.892-9.365,13.973-9.142,6.54,2.081,2.378,2.6L1047.9,354Z" transform="translate(-36.846 -87.532)" fill="#09a3bf"/>
      <path id="NG" d="M1049.613,419.415l1.709,1.858-.446.892-.223,1.561-3.493,3.716-1.041,3.047-.595,2.453-.892,1.115-.817,3.345-2.23,1.932-.594,2.378-.966,1.932-.371,2.007-2.9,1.635-2.378-2.007-1.561.074-2.527,2.824H1029.1l-2.007,4.608-1.04,3.419-4.385,1.709-1.561-.223-1.635,1.041-3.345-.074-2.3-3.047-1.412-3.419-2.973-3.122H1001.6l.223-7.655-.149-3.047.818-2.973,1.264-1.487,2.081-2.973-.446-1.263.818-1.932-.966-2.824.149-1.561.3-4.311,1.189-1.932.595-2.75,1.041-.966,4.534-.595,4.162,1.784,1.561,1.784,2.155.074,2.007-1.115,5.054,2.453,2.155-.149,2.453-2.007,2.453.149,1.189-.669,2.23.223,3.27,1.412,3.2-2.676,1.041.223,2.9,5.2.743-.074Z" transform="translate(-40.338 -103.375)" fill="#09a3bf"/>
      <path id="Path_1167" data-name="Path 1167" d="M1086.688,65.266l-4.757,1.561-2.378.372.594-2.824-4.311-1.561-4.385,1.338-.818,2.973-2.527,1.784-3.493-.966-3.939.149-3.791-2.081-1.635,1.041-1.932.149.074,2.676-5.946-.669-.446,2.3h-2.973l-1.709,2.9-2.527,4.534-4.236,5.872,1.338,1.486-.966,1.635-3.2-.074-1.784,4.013.743,5.723,2.3,2.155-.595,5.128-2.527,2.973-1.338,2.527-2.453-2.676-6.392,5.054-4.534,1.041-4.831-2.23-1.338-4.682L1008.5,96.853l2.973-2.75,8.4-3.642,6.02-4.385,5.351-5.8,6.615-7.953,4.757-3.047,7.655-5.054,6.317-1.784,4.98.223,3.865-3.27,5.5.149,5.2-.743,10.182,2.9-3.642,1.041Z" transform="translate(-42.11 -12.479)" fill="#09a3bf"/>
      <path id="Path_1168" data-name="Path 1168" d="M1072.8,24.481l-5.649,1.412-5.054-.818,1.635-.892-1.932-1.115,5.426-.669,1.412,1.263Z" transform="translate(-55.796 -3.133)" fill="#09a3bf"/>
      <path id="Path_1169" data-name="Path 1169" d="M1043.913,16.315l9.365,2.527-6.392,1.338-.892,2.527-2.23.669-.669,2.973-3.27.149-6.318-2.155,2.23-1.263-4.236-1.041-5.723-2.9-2.378-2.6,6.912-1.189,1.709,1.115h3.716l.743-1.115,3.865-.149Z" transform="translate(-45.936 -1.284)" fill="#09a3bf"/>
      <path id="Path_1170" data-name="Path 1170" d="M1068.159,13.418l5.5,1.115-3.27,1.784-7.507.372-7.953-.595-.743-.892H1050.4l-3.2-1.486,7.8-.892,4.013.743,2.3-.966Z" transform="translate(-52.047 -0.616)" fill="#09a3bf"/>
      <path id="NP" d="M1457.42,318.689l.149,2.007,1.115,3.047-.074,1.858-3.419.074-5.128-1.115-3.2-.446-2.824-2.378-5.723-.669-5.8-2.676-4.311-2.3L1423.9,314.3l.669-4.459,2.081-2.23,1.412-1.115,3.568,1.487,4.757,3.122,2.453.669,1.858,2.3,3.344.892,3.716,2.155,4.831,1.041Z" transform="translate(-148.772 -76.081)" fill="#09a3bf"/>
      <path id="Path_1171" data-name="Path 1171" d="M1281.9,381.266l-1.635-3.344-3.865-7.878,12.115-4.757,1.932-9.513-2.23-3.419v-1.932l.966-1.932-.149-1.932,1.784-.966-.818-.669V341.8h2.081l2.23,3.27,2.453,1.709,3.047.669,2.527.818,2.155,2.75,1.263,1.561,1.486.669.149,1.041-1.263,2.824-.52,1.338-1.635,1.561-1.263,3.27-1.858-.3-.743,1.189-.52,2.378.818,3.2-.372.595h-1.858l-2.453,1.784-.223,2.3-.892,1.04-2.6-.074-1.486,1.189.149,1.932-1.932,1.338-2.3-.446-2.676,1.635Z" transform="translate(-110.898 -85.144)" fill="#09a3bf"/>
      <path id="Path_1172" data-name="Path 1172" d="M1295.866,335.6l-.966-1.635,1.041-1.561.52.372-.149,2.007Z" transform="translate(-115.649 -82.731)" fill="#09a3bf"/>
      <path id="PK" d="M1380.109,271.2l-2.824,4.013-4.237.743-6.317-1.189-1.486,2.081,2.453,4.162,2.156,3.27,3.79,2.3-2.824,2.75.743,3.419-2.9,4.831-1.635,4.831-3.344,4.98-4.831-.372-3.642,5.054,2.973,2.081,1.041,3.716,2.6,2.378,1.338,4.088h-8.993l-2.378,3.2-3.121-1.189-1.635-3.419-3.642-3.642-7.432.892-6.689.074-5.649.669.818-5.5,5.574-2.527-.669-2.155-2.006-.818-.743-4.162-4.237-2.081-2.081-2.9-2.379-2.527,7.135,2.453,3.939-.743,2.527.595.669-1.041,2.9.446,4.905-2.007-.594-4.013,1.709-2.75h3.047l.148-1.263,2.973-.669,1.561.446,1.338-1.338-.817-2.9,1.041-2.824,2.3-1.263-2.3-3.122,3.865.149.669-1.709-.595-1.858,1.486-2.007-1.041-2.378-1.412-2.007,1.784-2.081,3.939-.966,4.385-.595,1.784-.818,2.156-.595,3.493,2.23,2.155,3.716,7.061,1.858Z" transform="translate(-121.554 -65.014)" fill="#09a3bf"/>
      <path id="PL" d="M1073.224,154.158l4.385.52,6.54-.074,1.858.52,1.041,1.412.446,2.007,1.264,1.709.3,1.784-2.081.966,1.412,2.081.372,2.081,2.378,4.013-.223,1.263-1.709.52-2.824,3.865,1.189,2.081-.818-.3-3.716-1.784-2.6.669-1.784-.446-2.081.966-2.007-1.635-1.412.669-.223-.3-1.932-2.3-2.75-.223-.52-1.486-2.527-.52-.446,1.189-2.081-.966.149-1.263-2.75-.372-1.858-1.486-1.784-2.9.149-1.635-1.115-2.453-1.412-1.561.892-1.263-1.041-2.3,2.3-1.338,5.277-2.081,4.311-1.486,3.568.743.446,1.115h3.419Z" transform="translate(-53.767 -36.487)" fill="#09a3bf"/>
      <path id="KP" d="M1654.035,228.924l1.041.818-1.635-.3-.743,1.635-.223,1.561,2.081,3.419-1.412,1.041-.223.818-.669,1.412-2.155.818-1.041,1.263.966,2.007-.223.52,1.932.818,3.27,2.081v1.115l-1.487.3-2.675.3-.446,2.081-1.858-.149v.446l-2.378-.892-.074.892-.966.372-.52-.892-1.264-.446-1.412-.743.074-2.081.669-.595-.743-.818-.3-2.6-.669-.743-2.527-.52-2.527-1.264,1.561-3.047,2.9-2.527.817-3.419,2.676,1.487,3.419.223-2.081-2.527,4.757-2.007V226.1l4.088,2.824Z" transform="translate(-203.207 -55.436)" fill="#09a3bf"/>
      <path id="PS" d="M1177.581,293.595l.3,2.973-.446,1.412-1.858.595.074-1.264.966-.669-1.115-.52.52-3.122,1.561.595Z" transform="translate(-84.99 -72.614)" fill="#09a3bf"/>
      <path id="QA" d="M1269.047,341.261l-1.115.372-1.338-.966-.595-3.493.818-2.453,1.115-.52,1.338,1.486.372,2.75-.595,2.824Z" transform="translate(-108.228 -83.193)" fill="#09a3bf"/>
      <path id="RO" d="M1111.069,193.1l1.189.52,1.338,1.338,1.486,1.932,2.527,2.824.446,2.007-.148,2.007.966,2.155,1.784.892,1.709-.818,1.784.818.3,1.263-1.709.966-1.189-.446-.3,5.723-2.3-.52-2.973-1.709-4.385,1.115-1.709,1.189-5.649-.3-2.973-.669-1.412.3-1.338-1.932-.743-.818.743-.818-.966-.52-1.115,1.041-2.3-1.412-.52-1.932-2.378-1.041-.595-1.561-2.23-1.784,2.9-.892,1.932-3.2,1.412-3.122,2.156-.966,1.486-1.041,2.378.52h2.378l1.858,1.189,1.189-.743,2.676-.446.743-1.115Z" transform="translate(-62.626 -46.963)" fill="#09a3bf"/>
      <path id="RW" d="M1156.746,509.1l1.635,2.676-.223,2.824-1.189.595-2.3-.3-1.263,2.75-2.6-.372.446-2.676.595-.372.148-2.824,1.189-1.338,1.041.52Z" transform="translate(-78.648 -128.102)" fill="#09a3bf"/>
      <path id="EH" d="M926.729,324.3l-.074.3-.074.892-.149,7.284-13.378-.3-.149,12.263-3.865.372-1.115,2.453.669,6.912H892.466l-.966,1.561.223-2.007h.074l9.29-.372.52-1.709,1.784-2.155,1.486-6.615,5.872-5.128,2.007-6.02,1.338-.372,1.412-3.716,3.419-.52,1.487.669h1.858l1.338-1.115,2.527-.149-.074-2.527h.669Z" transform="translate(-12.068 -80.651)" fill="#09a3bf"/>
      <path id="SA" d="M1223.939,309.942l3.716.446,1.264,2.3,2.9-.149,2.007,4.162,2.156,1.041.892,1.709,2.973,2.007.52,1.932-.3,1.635.669,1.561,1.338,1.338.669,1.561.743,1.189,1.338.966,1.115-.372.966,1.858.223,1.04,2.007,4.905,12.561,2.378.743-1.041,2.23,3.419-1.932,9.513L1250.62,358.1l-11.817,1.858-3.716,2.155-2.6,4.98-1.932.818-1.115-1.561-1.561.223-4.088-.52-.817-.446-4.757.074-1.115.446-1.784-1.189-.966,2.3.594,2.007-1.784,1.561-.669-2.081-1.338-1.412-.371-1.932-2.3-1.709-2.453-4.013-1.412-3.865-3.047-3.27-1.858-.818-3.047-4.534-.669-3.27v-2.824l-2.676-5.351-2.081-1.858-2.229-.966-1.561-2.75.149-1.041-1.338-2.527-1.263-1.041-1.858-3.568-2.824-3.79-2.3-3.27H1176l.372-2.6.074-1.709.3-1.932,4.608.818,1.561-1.486.817-1.709,3.047-.669.52-1.635,1.189-.743-4.459-4.831,7.73-2.378.669-.743,5.054,1.338,6.392,3.345,12.486,9.588,7.581.372Z" transform="translate(-85.119 -73.205)" fill="#09a3bf"/>
      <path id="SD" d="M1170.176,396.721l-.52,4.088-1.486,4.757-2.453,2.3-1.709,3.716-.372,1.932-1.932,1.338-1.115,4.98v.595l-.595-.149.074-2.378-.595-1.635-2.156-1.858-.669-3.419.446-3.568-1.932-.3-.3,1.04-2.527.3,1.115,1.338.372,2.9-2.229,2.6-2.007,3.419-2.155.52-3.568-2.75-1.561.966-.372,1.338-2.155.966-.149.966h-4.162l-.595-.966-3.047-.223-1.486.818-1.189-.372-2.155-2.824-.743-1.263-3.047.669-1.115,2.155-.966,4.311-1.487.892-1.263.52-.372-.223-1.412-1.412-.3-1.486.594-1.932v-2.007l-2.453-2.973-.52-2.007v-1.189l-1.561-1.412-.074-2.75-.966-1.858-1.412.3.372-1.784,1.041-1.932-.52-2.007,1.338-1.486-.892-1.115.966-2.9,1.858-3.568,3.568.372-.818-18.952v-2.007h4.757l-.372-9.513h48.979l1.561,4.682-.892.818.892,4.98,1.858,5.649,1.635,1.189,2.378,1.784-2.007,2.676-2.973.818-1.264,1.486-.223,3.122-1.487,7.061.52,1.858Z" transform="translate(-68.146 -89.972)" fill="#09a3bf"/>
      <path id="SS" d="M1163.515,436.5l.149,3.716-.595,1.412-2.23.149-1.412,2.676,2.6.372,2.23,2.3.743,1.932,1.932,1.115,2.6,5.2-2.824,3.122-2.527,2.824-2.6,2.23h-2.973l-3.345,1.115-2.676-1.115-1.71,1.338-3.79-3.2-1.041-2.007-2.3.966-1.932-.3-1.115.818-1.932-.595-2.6-3.939-.669-1.486-3.2-1.932-1.041-2.824-1.784-2.081-2.9-2.453-.074-1.561-2.3-1.932-2.9-1.858,1.263-.52,1.486-.892.966-4.311,1.115-2.155,3.047-.669.743,1.263,2.155,2.824,1.189.372,1.486-.818,3.047.223.595.966h4.162l.149-.966,2.156-.966.371-1.338,1.561-.966,3.568,2.75,2.155-.52,2.007-3.419,2.23-2.6-.372-2.9-1.115-1.338,2.527-.3.3-1.041,1.932.3-.446,3.568.669,3.419,2.155,1.858.595,1.635-.075,2.378.595.149Z" transform="translate(-71.074 -106.045)" fill="#09a3bf"/>
      <path id="SN" d="M910.143,404.739l.149,2.973.818,2.75L912.6,411.8l.372,1.784-.223,1.486-.595.3-2.3-.372-.3.52-.892.074-3.047-1.115L903.6,414.4l-7.73-.223-1.115.595-1.412-.149-2.23.743-.595-3.642,3.791.074,1.041-.669h.743l1.561-1.115,1.784.966,1.784.149,1.858-1.115-.817-1.338-1.412.743h-1.264l-1.635-1.189-1.338.074-.966,1.189-4.534.074-1.709-3.716-2.007-1.635,1.858-.966,2.081-3.345,1.04-2.453,1.486-1.486,2.007.372,2.081-1.041h2.3l2.007,1.338,2.676,1.264,2.527,3.567,2.676,3.27Z" transform="translate(-11.015 -98.882)" fill="#09a3bf"/>
      <path id="SL" d="M924.135,445.178l-1.932,2.23-1.932,2.527-.223,1.412-1.041,1.561-1.115-.372-2.973-1.932-2.23-2.527-.669-1.784-.52-3.493,2.3-2.155.446-1.263.743-1.041,1.189-.149.966-.892h3.344l1.189,1.709.892,2.007-.149,1.412.669,1.264-.074,1.709,1.115-.223Z" transform="translate(-17.204 -109.666)" fill="#09a3bf"/>
      <path id="RS" d="M1096.736,215.067l-.818,1.04.52,1.784,2.081,2.007-1.338,1.486-.446,1.486.446.595-.52.595-1.784.149-1.263.223-.223-.372.446-.52.3-1.189-.52.074-.818-.892-.669-.223-.594-.743-.743-.3-.595-.669-.669.3-.372,1.561-.892.3.3-.372-1.561-.966-1.263-.52-.669-.669-1.04-.818.817-.223.372-2.155-2.007-1.858.818-2.081-1.412.074,1.263-1.784-1.263-1.338-1.115-1.858,2.75-1.189,2.378.223,2.23,1.784.595,1.561,2.378,1.04.52,1.932,2.3,1.412,1.115-1.041.966.52-.743.818.743.818Z" transform="translate(-60.854 -50.275)" fill="#09a3bf"/>
      <path id="SK" d="M1090.962,186.93l-.892,1.264-.52,1.858-.743.446-4.088-1.412-1.189.3-.743,1.115-1.709.595-.446-.3-1.709.669-1.412.149-.223.966-3.047.52-1.412-.446-2.007-1.264-.52-1.561.223-.595.446-1.041,1.635.074,1.189-.446.074-.446.669-.223.149-1.041.817-.223.52-.818h1.115l.223.3,1.412-.669,2.007,1.635,2.081-.966,1.784.446,2.6-.669Z" transform="translate(-57.978 -44.806)" fill="#09a3bf"/>
      <path id="SI" d="M1066.128,203.335l-2.9,1.263-.223,1.858-1.263.52.074,1.263-1.486-.074-1.338-.743-.595.743-2.676-.149.818-.372-1.041-2.007.3-2.3,3.122.372,1.784-1.115,3.27-.074.669-.818.595.074.892,1.561Z" transform="translate(-54.178 -49.171)" fill="#09a3bf"/>
      <path id="SE" d="M1075,82.609l-5.2,1.189-2.6,2.9.966,2.6-4.608,3.345-5.8,3.716-1.561,6.02,2.75,3.047,3.568,2.453-2.453,4.905-3.419,1.041-.446,7.432-1.561,4.236-4.237-.446-1.635,3.567-4.088.223-1.412-4.236-3.345-5.128-3.121-6.243,1.338-2.527,2.527-2.973.595-5.128-2.3-2.155-.743-5.723L1040,90.71l3.2.074.966-1.635-1.338-1.486,4.236-5.872,2.527-4.534,1.71-2.9h2.973l.446-2.3,5.946.669-.074-2.676,1.932-.149,4.459,2.007,5.351,2.75,1.338,6.317L1075,82.609Z" transform="translate(-49.377 -15.329)" fill="#09a3bf"/>
      <path id="SZ" d="M1159.954,667.418l.446,2.155.223,2.155-1.041,2.081-2.378.52-2.3-2.6.074-1.635,1.264-1.784.446-1.412,1.264-.3,2.007.818Z" transform="translate(-79.701 -168.543)" fill="#09a3bf"/>
      <path id="SY" d="M1190.609,281.158l-7.209,5.128-4.682-1.932h-.074l.446-.743-.3-1.932.669-2.6,2.007-1.858-.892-1.858-1.858-.223-.817-3.642.743-2.007.966-1.04.892-1.041-.148-2.6,1.412.892,4.162-1.338,2.23.892h3.27l4.237-1.784,2.155.074,4.385-.743-1.561,2.973-2.007,1.189.892,3.493-.743,5.723-8.176,4.98Z" transform="translate(-85.607 -64.86)" fill="#09a3bf"/>
      <path id="TD" d="M1104.615,369.784l.818,18.952-3.568-.372-1.858,3.567-.966,2.9.892,1.115-1.338,1.487.52,2.007-1.041,1.932-.371,1.784,1.412-.3.966,1.858.075,2.75,1.561,1.412v1.189l-2.676.818-2.081,1.932-2.973,5.2-3.865,2.23-4.088-.3-1.189.446.446,1.635-2.155,1.709-1.784,1.858-5.277,1.784-1.041-1.041-.743-.149-.743,1.263-3.419.372.595-1.338-1.338-3.27-.595-1.932-1.858-.818-2.527-2.824.892-2.23,1.932.446,1.189-.3h2.378l-2.378-4.311.148-3.2-.372-3.122-1.709-3.047.446-2.3-2.75-.074v-3.047l-1.784-1.784,1.709-6.317,5.2-4.459.149-6.243L1070.8,368l.892-2.081-1.784-1.635-.074-1.486-1.635-1.264-1.189-7.432,4.088-2.6,16.723,9.142,16.8,9.142Z" transform="translate(-55.95 -87.635)" fill="#09a3bf"/>
      <path id="TG" d="M990.039,431.174l-.52,2.527,1.263,1.412,1.487,1.635.149,2.378.892.966-.223,11,1.04,3.27-3.345,1.04-.966-1.709-1.115-3.047-.372-2.378.966-4.236-1.041-1.784-.446-3.716v-3.493l-1.709-2.453.3-1.486,3.642.074Z" transform="translate(-36.358 -108.074)" fill="#09a3bf"/>
      <path id="TH" d="M1565.329,400.058l-3.939-.669-5.277.892-2.3,3.939,1.561,5.8-3.939-2.23-3.568.149.223-3.79h-3.642l.149,5.277-1.635,6.986-1.041,4.236.52,3.419,2.75.149,2.007,4.385.966,4.088,2.527,2.75,2.527.52,2.3,2.527-1.264,1.932-2.75.595-.446-2.453-3.568-2.081-.669.818-1.709-1.784-.892-2.378-2.378-2.676-2.155-2.3-.52,2.824-.966-2.676.3-2.973.892-4.534,1.635-4.905,1.932-4.459-2.007-4.385-.149-2.23-.743-2.676-3.2-3.79-1.338-2.378,1.338-.892,1.041-4.088-2.155-3.2L1532.7,384.3l-2.6-4.162,1.635-.892,1.115-5.128,2.9-.223,2.081-2.081,2.23-1.115,2.007,1.486.669,2.9,2.824.223-.3,4.98.743,4.311,3.939-2.824,1.412.818,2.378-.149.595-1.635,3.2.3,3.716,3.865.966,4.757,3.939,4.162.3,4.013Z" transform="translate(-176.041 -92.565)" fill="#09a3bf"/>
      <path id="TJ" d="M1352.712,242.419l-1.041,1.412-4.459-.743.446,2.676,4.088-.372,5.277,1.561,7.135-.743,2.3,4.459,1.115-.52,2.75,1.115.372,1.858,1.338,2.676h-4.013l-2.824-.372-1.858,2.155-1.635.446-1.115,1.041-2.007-1.561-.669-4.013-1.263-.223.074-1.486-2.453-1.04-1.263,1.635.148,1.932-.446.669-2.378-.074-.669,2.155-1.561-.892-2.527,1.486-1.338-.52.966-4.831-1.784-3.568-3.121-1.115.446-2.081,3.27.223,1.115-2.6.371-3.047,4.831-1.115-.149,2.23.966,1.264,1.561-.074Z" transform="translate(-127.306 -58.749)" fill="#09a3bf"/>
      <path id="TM" d="M1317.707,253.167l-1.189-.149-2.156-1.264-.223,1.635-3.122.966.149,3.79-1.932,1.486-2.973.669-.3,2.155-2.9.669-4.385-1.858-1.264-3.939-2.973-.223-5.426-4.162-3.2-.52-4.905-2.453-2.9-.446-1.486.892-2.675-.149-2.23,2.75-3.27.892-1.412-3.345-.446-4.98-3.419-1.635.3-3.2-2.6-.3-.074-4.013,3.939,1.189,3.047-1.486-3.493-2.9-1.784-2.676-2.824,1.189.446,3.493-1.932-3.047,1.338-1.635,4.162-.966,2.9,1.338,3.568,3.716,1.932-.223,4.385-.074-1.264-2.378,2.824-1.635,2.527-2.75,5.871,2.527,1.412,3.716,1.709.966,4.088-.223,1.561.892,3.2,4.905,5.277,3.27,3.121,2.23,4.682,2.3,5.723,2.081.595,2.9Z" transform="translate(-106.2 -55.822)" fill="#09a3bf"/>
      <path id="TN" d="M1042.679,282.167l-.074,3.642-1.932,1.338-1.189,1.561-2.676,1.858.446,1.932-.3,2.081-1.932,1.041-1.932-8.547-2.527-1.932-.074-1.115-3.344-2.9-.446-3.568,2.378-2.676.818-3.939-.743-4.534.743-2.453,4.236-1.858,2.75.52v2.453l3.27-1.784.3.892-1.858,2.378.074,2.155,1.412,1.189-.372,4.162-2.6,2.378.892,2.6,2.081.074,1.041,2.3,1.561.743Z" transform="translate(-46.783 -64.68)" fill="#09a3bf"/>
      <path id="Path_1184" data-name="Path 1184" d="M1181.621,234.478l4.088-.223,4.162,2.378.966,1.635.074,2.3,3.122,1.189,1.784,1.338-2.453,1.412,2.156,5.426-.52,1.487,2.824,3.79-1.784.818-1.561-1.189-4.682-.669-1.561.743-4.385.743-2.155-.074-4.236,1.784h-3.27l-2.23-.892-4.162,1.338-1.412-.892.149,2.6-.892,1.041-.966,1.04-1.709-2.155,1.263-1.784-2.378.446L1158.432,257l-2.379,2.75-5.946.52-3.493-2.527-4.236-.149-.743,1.932-2.676.595-4.014-2.527-4.311.074-2.824-4.757-3.122-2.6,1.486-3.716-2.676-2.3,3.79-4.534,5.946-.149,1.189-3.642,7.432.669,4.162-3.047,4.311-1.338,6.318-.149,7.283,3.345,5.872,1.858,4.311-.743,3.419.446Z" transform="translate(-71.639 -56.977)" fill="#09a3bf"/>
      <path id="Path_1185" data-name="Path 1185" d="M1121.8,237.743l.892-.52.818-2.973-2.007-1.263,3.716-1.486,3.419.595.669,1.858,3.568,1.486-.52,1.189-4.608.223-1.486,1.486-2.9,2.527-1.486-2.155Z" transform="translate(-71.125 -56.823)" fill="#09a3bf"/>
      <path id="TW" d="M1656.128,351.366l-1.041,3.939-2.973-4.088L1651,347.724l1.412-4.682,2.453-3.642,2.229,1.412-.074,2.9Z" transform="translate(-207.084 -84.528)" fill="#09a3bf"/>
      <path id="TZ" d="M1163.662,508.374l-.149,2.9-.818,3.345,1.189,1.858,1.858-1.115,2.453-.3.52.595,2.453-1.189-1.709-1.635,1.412-2.155,2.081-2.155,15.236,9.736.223,2.75,6.02,4.757-2.081,5.946.223,2.676,2.6,1.709.149,1.263-1.263,2.9.223,1.412-.3,2.3,1.338,2.973,1.635,4.757,1.486,1.041-3.419,2.75-4.608,1.858-2.527-.074-1.561,1.412-2.9.149-1.115.595-4.98-1.338-1.635.149.074-.074-1.338-1.784-.223-5.054-2.156-2.527-.3.892-.743-1.263-4.088-.892-2.378-1.412-2.676-.818-1.635-.818-.223-.149-2.007-4.905-.3-2.9-3.344-3.27,1.041-1.784-.818-1.932.149-2.007-.743-.669.223-2.081.446-.074,1.487-1.709,1.709-2.527,1.04-.966v-1.561l-.892-1.115-.223-1.858,1.189-.595.223-2.824-1.635-2.676,1.486-.595,4.608.074Z" transform="translate(-79.47 -127.897)" fill="#09a3bf"/>
      <path id="UG" d="M1172.581,474.5l2.007,3.345.52,2.378,1.932,5.5-1.561,3.493-2.081,3.122-1.189,1.932v.223l-.149-.3-2.23-.966-1.784,1.189-2.676.669-1.933,2.75.223,1.858-4.608-.074-1.486.595-2.527,1.486-1.041-.52.074-3.568.966-1.858.223-3.79.892-2.23,1.635-2.453,1.561-1.338,1.412-1.635-1.71-.669.223-5.574,1.709-1.338,2.676,1.115,3.344-1.115h2.973l2.6-2.23Z" transform="translate(-79.47 -119.218)" fill="#09a3bf"/>
      <path id="UA" d="M1141.537,172.8l1.71,2.007.074.892,4.98,1.635,2.676-.743,2.676,2.155,2.155-.074,5.723,1.486.3,1.412-.966,2.378,1.338,2.6-.223,1.561-3.568.3-1.635,1.338.3,2.007-2.9.372-2.23,1.561-3.419.223-2.973,1.784.743,2.9,2.081,1.115,3.791-.3-.446,1.709-4.013.818-4.682,2.676-2.3-.966.52-2.155-4.385-1.412.52-.892,3.419-1.561-1.264-1.041-6.02-1.189-.594-1.784-3.345.595-.966,2.6-2.453,3.419-1.784-.818-1.709.818-1.784-.892.892-.52.446-1.561.818-1.561-.446-.818.743-.372.446.669,2.23.149.966-.372-.743-.446.149-.743-1.486-1.189-.818-1.932-1.487-.743.075-1.561-1.932-1.263-1.486-.223-2.973-1.412-2.378.446-.818.669h-1.561l-.743,1.115-2.676.446-1.189.743-1.858-1.189h-2.378l-2.379-.52-1.486,1.041-.372-1.264-2.23-1.263.52-1.858.892-1.263.818.3-1.189-2.081,2.824-3.865,1.709-.52.223-1.263-2.378-4.013,1.71-.223,1.784-1.189,2.824-.149,3.642.372,4.236,1.115,2.9.074,1.412.669,1.263-.818,1.115,1.115,3.2-.223,1.561.446-.223-2.3.966-1.041,3.047-.223,1.338.149.743-1.041,1.115.223,3.642-.446,2.824,2.6-.669.966.595,1.412,2.9.223Z" transform="translate(-64.629 -40.415)" fill="#09a3bf"/>
      <path id="UZ" d="M1331.619,225.308l1.263.446-2.23,3.047,3.419,1.784,2.378-1.189,5.351,2.527-3.939,3.419-3.047-.446-1.561.074-.966-1.263.149-2.23-4.831,1.115-.372,3.047-1.115,2.6-3.27-.223-.446,2.081,3.122,1.115,1.784,3.568-.966,4.831-3.2-1.041h-2.23l-.595-2.9-5.723-2.081-4.682-2.3-3.122-2.23-5.277-3.27-3.2-4.905-1.561-.892-4.088.223-1.709-.966-1.412-3.716L1283.681,223l-2.527,2.75-2.824,1.635,1.263,2.378-4.385.074L1270.6,212.45l8.919-2.75.818.372,6.838,3.345,3.568,1.784,4.905,4.236,4.236-.669,6.392-.372,5.649,3.419,1.115,4.757,1.932.074,1.858,3.865,4.979.149,1.709,2.23H1325l.669-3.419,4.013-3.27,1.932-.892Z" transform="translate(-109.409 -51.225)" fill="#09a3bf"/>
      <path id="VN" d="M1577.872,360.521l-4.831,4.013-2.75,4.534-.446,3.345,3.939,4.98,4.831,6.243,4.236,2.973,3.047,3.79,2.973,8.844.3,8.4-3.2,3.122-4.534,3.122-3.121,3.939-4.905,4.459-1.709-3.047.892-3.27-3.27-2.676,3.419-1.932,4.385-.372-2.081-2.824,6.689-3.716-.074-5.723-1.338-3.2.149-4.757-1.487-3.345-3.642-3.345-3.27-4.162-4.236-5.649-5.426-2.9.892-1.709,2.453-1.263-2.23-4.162h-5.054l-2.6-4.311-2.973-3.79,2.007-1.189,3.27.074,3.939-.595,3.047-2.527,2.3,1.784,3.939.892-.223,2.75,2.3,1.932,4.385,1.264Z" transform="translate(-181.895 -87.738)" fill="#09a3bf"/>
      <path id="YE" d="M1268.8,391.023l-2.973,1.264-.669,2.155v1.635l-4.013,2.007-6.541,2.23-3.493,3.345-1.858.3-1.263-.3-2.378,2.007-2.6.892-3.493.223-1.041.3-.818,1.263-1.115.372-.595,1.189-2.081-.149-1.264.669-2.973-.223-1.189-2.824v-2.6l-.743-1.412-.966-3.493-1.338-1.932.818-.3-.52-2.155.446-.892-.3-2.081,1.784-1.561-.595-2.007.966-2.3,1.784,1.189,1.115-.446,4.757-.074.818.446,4.088.52,1.561-.223,1.115,1.561,1.932-.818,2.6-4.98,3.716-2.155L1263.3,379.8l3.865,7.878,1.635,3.345Z" transform="translate(-97.803 -94.902)" fill="#09a3bf"/>
      <path id="ZM" d="M1148.466,556.261l.223.149,1.635.818,2.676.818,2.379,1.412,1.932,2.155.966,4.013-.743,1.264-.966,3.865.669,4.013L1155.9,576.4l-1.487,4.459,2.156,1.189-12.783,3.939.3,3.419-3.2.669-2.453,1.858-.595,1.635-1.487.446-3.79,3.865L1130.182,601l-1.412.074-1.338-.52-4.608-.52-.743-.372v-.372l-1.635-1.115-2.676-.223L1114.351,599l-2.676-2.973L1109,592.159l.595-15.236,8.7.074-.3-1.635.669-1.784-.669-2.23.52-2.3-.446-1.486,1.412.074.223,1.487,2.007-.074,2.6.446,1.412,2.155,3.27.669,2.6-1.487.892,2.453,3.2.669,1.486,2.081,1.635,2.6h3.2l-.149-5.128-1.189.892-2.9-1.858-1.115-.892.669-4.757.818-5.649-.892-2.081,1.264-3.047,1.115-.595,5.723-.817.669.223-.223,1.041,1.412.372.892.966.743-.223-.372-.817Z" transform="translate(-67.915 -139.811)" fill="#09a3bf"/>
      <path id="ZW" d="M1151.235,633.582l-2.156-.52-1.412.595-2.007-.818h-1.635l-2.527-2.155-3.2-.743-1.115-3.047.074-1.709-1.709-.52-4.534-5.2-1.189-2.75-.818-.892-1.412-3.79,4.608.52,1.338.52,1.412-.074,2.378-3.122,3.79-3.865,1.486-.446.595-1.635,2.453-1.858,3.2-.669.149,1.784,3.493-.074,1.932.966.818,1.189,2.007.372,2.081,1.486-.3,6.095-.966,3.27-.3,3.568.594,1.412-.669,2.824-.594.446-1.263,3.419Z" transform="translate(-72.691 -151.802)" fill="#09a3bf"/>
      <path id="SO" d="M1221.2,490l-2.453-3.939-.149-17.392,3.642-5.351,1.115-1.561,2.676-.074,3.716-3.344,5.426-.223,11.594-14.344-3.567.074-13.9-5.649-1.635-1.709-1.635-2.3-1.635-2.676.892-1.635,1.412-2.6,1.412.892.892,2.007,2.007,2.007h2.081l3.865-1.264,4.534-.52,3.642-1.486,2.081-.3,1.486-.892,2.379-.149,1.338-.149,1.858-.669,2.229-.52,1.858-1.635H1260l.148,1.338-.3,2.75.149,2.527-.818,1.709-1.04,5.2-1.784,5.277L1253.9,449.5l-3.419,6.986-3.493,5.351-4.905,6.54-4.162,3.865L1231.681,477l-3.939,3.568-4.608,5.8-.966,2.527L1221.2,490Z" transform="translate(-96.057 -106.405)" fill="#09a3bf"/>
      <path id="XK" d="M1095.746,229.131l-.892.223-2.155.743-.074.966-.521-.074-.446-1.709-.966-.52-.892-1.263.595-1.041.892-.3.372-1.561.669-.3.595.669.743.3.595.743.669.223.818.892.52-.074-.3,1.189-.446.52.223.372Z" transform="translate(-62.985 -54.974)" fill="#09a3bf"/>
      <path id="ZA" d="M1137.908,644.443l1.635,6.689.818,3.419-1.041,5.277.3,1.709-2.007-.818-1.264.3-.446,1.412-1.264,1.784-.074,1.635,2.3,2.6,2.378-.52,1.041-2.081h3.047l-1.263,3.493-.743,3.939-1.263,2.155-2.973,2.453-.818.669-1.932,2.453L1133,683.463l-2.6,3.419-4.98,4.905-3.047,2.824-3.2,2.23-4.385,1.784-2.007.3-.669,1.338-2.378-.743-2.007.892-4.236-.892-2.453.595-1.635-.3-4.311,1.932-3.419.743-2.6,1.784-1.784.149-1.561-1.709-1.338-.074-1.635-2.155-.223.669-.446-1.264.223-2.824-1.115-3.2,1.338-.892.074-3.642-2.453-4.459-1.784-4.013v-.074l-2.675-6.169,2.081-2.378,1.486,1.338.595,2.007,1.858.372,2.527.892,2.155-.372,3.716-2.453.817-17.615,1.041.743,2.23,4.534-.446,2.9.818,1.709,2.973-.52,2.081-2.155,2.006-1.412,1.115-2.3,2.081-1.04,1.71.52,1.858,1.338,3.344.223,2.676-1.041.446-1.487.892-2.3,2.23-.372,1.338-1.784,1.487-3.2,3.865-3.567,6.02-3.493h1.635l2.007.817,1.412-.594,2.156.52Zm-15.087,39.54.818-1.486,2.3-.743.818-1.561,1.412-2.3-1.263-1.486-1.635-1.486-2.007,1.041-2.3,1.858-2.378,2.973,2.75,3.716Z" transform="translate(-59.365 -162.663)" fill="#09a3bf"/>
      <path id="NL" d="M1012.905,172.812l-2.081-1.115-2.3-2.007-3.344.966-2.676-.372,1.858-1.263,2.973-6.689,4.831-1.932,2.973.149.669,1.561-.669,4.162-.892,1.709h-2.155Z" transform="translate(-40.569 -38.567)" fill="#09a3bf"/>
      <path id="PT" d="M944.178,255.2l-1.635,1.189-2.081-.669-2.007.52.669-3.716-.223-2.9-1.784-.446L936.3,247.4l.372-3.122,1.635-1.709.372-1.932.892-2.824V235.8l-.669-1.709-.149-1.635,1.412-1.189,1.635-.669.892,2.3h2.23l.669-.595,2.3.149.966,2.378-1.784,1.263-.223,3.716-.595.669-.223,2.3-1.709.372,1.486,2.824-1.189,3.122,1.338,1.412-.595,1.263-1.487,1.784.3,1.635Z" transform="translate(-23.571 -56.592)" fill="#09a3bf"/>
      <path id="Path_1190" data-name="Path 1190" d="M1682.952,171.7l10.182,8.176-6.615-1.486,2.75,6.689,7.135,4.757,2.23,3.27-4.831-2.824.074,3.642-3.493-3.939-2.824-4.534-4.162-4.98-1.783-3.568-4.757-6.094-5.946-4.534-5.054-6.243,1.412-2.081-3.27-2.081.966-.669,3.642,2.973,5.128,4.385,3.865,4.534Z" transform="translate(-210.422 -37.231)" fill="#09a3bf"/>
      <path id="Path_1191" data-name="Path 1191" d="M1090.826,154.065l-6.54.074-4.385-.52.52-1.932,4.682-1.486,3.79.818,1.635.669-.149,1.263Z" transform="translate(-60.443 -35.948)" fill="#09a3bf"/>
      <path id="Path_1192" data-name="Path 1192" d="M1544.343,47.353l-4.385.074-6.615-.446-.743-.223.52-1.486,3.121-.372,6.243,1.486Z" transform="translate(-176.683 -8.91)" fill="#09a3bf"/>
      <path id="Path_1193" data-name="Path 1193" d="M1555.839,38.186l-.818,1.486-5.128-.3-7.655-1.486L1540.9,36.7l6.169.52Z" transform="translate(-178.814 -6.804)" fill="#09a3bf"/>
      <path id="Path_1194" data-name="Path 1194" d="M1527.36,35.581l2.3,2.824-10.628-.149-3.419.892-9.29-2.453-2.527-2.527,2.6-.669,7.581.149Z" transform="translate(-169.288 -5.983)" fill="#09a3bf"/>
      <path id="Path_1195" data-name="Path 1195" d="M1211.636,53.16l-1.635.3-10.034-.52-1.709-1.709-5.872-1.041-1.486-2.155,2.6-.818-1.189-2.081,4.013-3.27-2.973-.446,4.98-3.345-1.858-1.709,5.054-1.932,7.655-2.378,8.7-.669,3.716-1.338,4.979-.446,3.122,1.412-.966,1.115-8.473,1.858-7.358,1.709-6.466,3.568-2.081,3.716-2.453,3.716,2.3,3.2Z" transform="translate(-88.945 -4.981)" fill="#09a3bf"/>
      <path id="Path_1196" data-name="Path 1196" d="M1518.526,178.337l-1.041-.818-1.412-2.453,1.858-.074-2.9-5.574-3.493-4.013,2.155-1.635,5.128.818-.446-4.608-2.081-5.054.223-1.709-.966-4.236-5.128,1.412-1.932,1.784h-5.649l-4.459-4.311-6.689-3.345-7.432-1.486-4.608-4.459-3.344-2.824-2.824-2.007-5.723-4.608L1463.3,127.5l-6.392-1.412-4.608.149-3.79.818-1.264,2.3L1450,130.4l1.858,2.527-.966,1.486.149,4.831,1.412,2.081-3.27,2.9-5.5-1.784-4.162.446-2.9-1.561-2.527-.52-3.27,3.27-4.385.743-2.676,1.189-5.054-.743h-3.419l-3.642-2.378-4.905-2.155-4.013-.669-4.236.595-2.973.892-6.318-1.932-2.676-3.419-4.98-1.189-3.567-.595-5.2-1.858-.966,4.757,2.973,2.676-1.784,3.27-5.946-1.189-3.716-.149-3.568-2.155-3.865-.074-3.939-1.412-4.385,2.155-4.98,3.939-3.493.818-1.264.372-3.27-2.824-4.459.669-2.453-2.007-2.973-.892-3.047-2.676-2.453-.818-4.608,1.189-6.243-2.6-.818,2.378-13.6-11.594-6.243-3.493.595-1.486-6.838,4.311-3.27.223-.818-2.453-5.277-1.561-3.2,1.115-3.27-4.682-6.763-.966-2.3,1.858-8.1,1.709-1.264,1.115-12.635,1.561L1233.5,125.2l3.791,3.122-2.973,1.189,1.115,1.189-2.6,2.23,6.986,3.2-.149,2.155-5.2-.223-.595,1.412-5.425-2.378-5.723.074-3.27,1.932-4.905-1.858-8.919-3.2-5.649.149-6.02,4.98.446,3.345-4.459-2.676-1.635,5.128,1.338.892-1.263,3.568,3.939,3.122L1195,152.4l3.2,3.122.149,2.378,2.081.818-1.041,2.75-3.419.743-2.676,4.831,4.459,4.534.3,3.122,5.426,5.574-1.858,1.932-.446,1.189-1.784-.372-3.2-2.824-1.115-.149-2.676-1.115L1190.835,177l-3.79-.966-2.155.743-.892-.892-5.648-2.3-5.723-.743-3.419-.818-.3.595-5.649-4.013-4.608-1.784-3.79-2.75,2.676-.743,2.378-3.865-2.453-1.858,5.128-1.932-.3-1.041-3.2.743-.3-2.007,1.635-1.338,3.568-.3.223-1.561-1.338-2.6.966-2.378-.3-1.412-5.723-1.486-2.155.074L1153,140.209l-2.676.743-4.98-1.635-.074-.892-1.709-2.007-2.9-.223-.595-1.412.669-.966-2.824-2.6-3.642.446-1.115-.223-.743,1.041-1.338-.149-1.487-2.973-1.115-1.486.595-.446,2.9.149,1.189-.966-1.263-1.189-2.527-.818v-.818l-1.561-.818-2.824-2.973.52-1.189-.817-2.155-3.568-1.041-1.784.52-.669-1.115-3.939-1.115-1.561-2.676-.743-2.155-1.858-.966,1.189-1.412-1.784-4.162L1111.9,100l-.669-.743,3.344-2.453-4.013-2.081,5.946-5.5,2.527-2.527.669-2.155-5.5-2.9.669-2.824-3.642-3.122,1.264-3.568-4.831-4.682,2.155-3.122-5.426-2.75-.3-2.824,2.379-.372,4.757-1.561,2.75-1.412,5.723,2.378,8.7.966,13.155,4.608,3.047,1.932,1.115,2.75-2.75,2.155-4.831,1.115-15.013-3.122-2.155.52,6.02,3.047.743,1.932L1129.147,78l4.534,1.263,2.824,1.115-.149-2.081-2.527-1.784,1.561-1.635,8.622,2.676,2.378-1.041-3.2-3.122,6.02-4.013,3.047.223,3.419,1.412.818-2.824L1153,65.737l.594-2.453-3.2-2.527,9.142,1.338,2.676,2.23-3.791.52.892,2.3,3.047,1.412,4.459-.892-.3-2.6,5.723-2.007,9.216-3.419,2.378.149-1.858,2.453,4.013.446,1.561-1.412,5.723-.074L1197,59.494l4.757,2.453,2.081-2.676-4.459-2.3.892-1.338,9.662,1.189,4.906,1.263,13.824,4.608.818-2.081-4.385-2.155-.595-.818-3.939-.446-.149-1.858-3.493-3.122-.818-1.263,3.2-3.493-.446-3.568,1.635-.743,8.473,1.041,2.155,2.155-.669,3.122,2.75,1.263,2.824,2.75,2.824,5.5,4.98,2.453.372,2.75-2.6,5.8,3.939.595.372-1.486,2.824-1.041-.372-2.007,1.412-2.007-3.27-2.3-.3-2.676-3.568-.3-2.156-2.23-.3-4.013-6.095-3.2,3.493-2.6-2.75-2.75,1.412-.074,3.121,2.081,1.561,3.79,3.716.743-3.419-2.824,3.79-1.561,6.02-.223,7.135,2.23-5.128-3.2-3.642-4.088,4.385-.743,7.061.149,5.8-.52-4.162-1.932.966-2.453,3.122-.149,3.642-1.784,6.912-.52-.149-1.041,6.912-.3,3.2.818,4.013-1.932,5.2.074-1.115-1.635.669-1.486,4.608-1.486,6.169,1.189-2.6.892,6.986.52,3.047,1.784,1.412-.892,8.1.074,8.621,1.784,4.088,1.338,1.858,1.932-1.784,1.115-4.905,2.081-.818,1.115,4.162.52,5.351.966,1.784-.743,4.311,2.453.149-.966,3.865-.595,10.108.595,2.824,1.784,12.932.595-3.568-2.9,7.061.669,4.534-.074,7.358,2.007,4.459,2.453.3,1.635,7.507,3.122,6.689,1.561-2.23-4.088,6.986,1.709,3.716-1.041,7.284,1.189.743-1.041,5.649.52-6.986-3.642,1.561-1.635,30.026,2.527,5.871,2.3L1475.2,51.69l11-.743,6.912.669,4.905,1.635,3.791,2.9,5.426,1.115,2.9-.818,5.2-.074,6.912.743,5.128-.446L1538,60.237l1.858-1.263-6.318-2.527-1.338-1.784,11.371,1.115,5.946-.223,11.743,1.858,7.061,1.784L1593,75.622l-1.486,1.858-4.608-.3,6.094,2.23,6.763,3.493,3.122,1.115,2.824,1.784.743,1.115-7.432-.892-4.905,3.2-2.23.52-1.189,3.047-1.486,2.676,1.264,2.007-8.547-3.047-4.534,3.419L1573.9,96.21l-1.041,1.932-5.2-.669,2.3,2.9.818,4.311,2.155,1.784,5.054.966,6.763,6.466-3.047.223,2.527,3.716,3.493,1.932-3.716,2.3,4.013,5.2-4.236,1.115,3.345,4.608-1.264,4.311-4.236-3.2-7.8-6.615-12.04-10.108-4.831-6.169.074-2.676-2.081-2.081,4.237-.966-.149-5.574.52-4.459,1.858-3.493-4.905-6.094-3.493.372,2.378,3.568-2.676,4.757-9.142-5.351-6.763,1.486v7.284l5.723,2.676-6.318,1.189-4.757.446-3.2-3.2-5.946-.669-1.858,2.155-11.223-.743-9.811,1.263-2.6,8.7-3.716,10.554,6.094.595,4.236,2.824,4.311.966.3-2.23,4.162.3,9.514,4.98,3.493,3.865,1.04,4.608,4.088,5.5,3.939,7.358-.743,6.763.966,3.2-1.486,5.5-1.561,5.426-.669,2.75-3.419,2.75-2.3.074-3.865-2.3-3.047,3.493Z" transform="translate(-66.657 -4.031)" fill="#09a3bf"/>
      <path id="Path_1197" data-name="Path 1197" d="M1362.119,21.868l-13.452,1.338-.966-4.534,1.635-.372,2.3.223L1361,20.455Z" transform="translate(-129.206 -2.08)" fill="#09a3bf"/>
      <path id="Path_1198" data-name="Path 1198" d="M1159.151,12.689l-3.2.372-2.155.3v.52l-2.676.52-3.345-.743.818-1.041-5.8-.074,4.682-.595h3.865l1.115.818.966-.743,2.081-.52,4.311.669Z" transform="translate(-76.594 -0.334)" fill="#09a3bf"/>
      <path id="Path_1199" data-name="Path 1199" d="M1334.983,17.781l-5.277.446-8.7-.966L1314.99,16l-4.905-2.378-4.385-.595,4.014-2.155,4.608-.669,7.135,1.486,10.182,3.122Z" transform="translate(-118.422 0)" fill="#09a3bf"/>
      <path id="ES" d="M966.714,222.861l1.487,1.784,7.061,2.155,1.412-1.041,4.311,2.155,4.385-.595.3,2.75-3.642,3.122-4.905,1.041-.372,1.561-2.378,2.6-1.486,3.865,1.486,2.75-2.23,2.081-.892,3.122-2.973.966-2.75,3.642-5.054.074-3.716-.074-2.527,1.635-1.561,1.784-1.932-.372-1.412-1.635-1.041-2.676-3.642-.743-.3-1.635,1.486-1.784.595-1.264-1.338-1.412,1.189-3.122-1.486-2.824,1.71-.372.223-2.3.595-.669.223-3.716,1.784-1.263-.966-2.378-2.3-.149-.669.595h-2.23l-.892-2.3-1.635.669-1.412,1.189.372-3.345-1.487-2.007,5.5-3.419,4.608.818h5.128l4.014.818,3.2-.3,6.169.223Z" transform="translate(-24.034 -54.204)" fill="#09a3bf"/>
      <path id="Path_1200" data-name="Path 1200" d="M1034.365,230.013l-1.115,3.642-1.784-.966-.966-3.122.669-1.784,2.378-1.784Z" transform="translate(-47.759 -55.411)" fill="#09a3bf"/>
      <path id="Path_1201" data-name="Path 1201" d="M1001.331,182.407l.818.372,1.041-.074,1.784,1.189,5.351.892-1.784,3.122-.3,3.345-.966.818-1.71-.446.149,1.189-2.676,2.6v2.155l1.784-.743,1.338,2.007-.074,1.338,1.115,1.784-1.264,1.412,1.115,3.642,2.081.595-.372,2.007-3.345,2.676-7.581-1.263-5.5,1.561-.446,2.824-4.385.595-4.311-2.155-1.412,1.041-7.061-2.155-1.487-1.784,2.007-2.824.743-9.365-3.79-4.905-2.75-2.378L963.8,189.69l-.3-3.419,4.831-.966,6.169,1.189-1.115-5.277,3.493,2.007,8.473-3.568,1.115-3.79,3.122-.966.595,1.635,1.635.074,1.784,1.858,2.6,2.155,1.858-.372Z" transform="translate(-30.556 -42.29)" fill="#09a3bf"/>
      <path id="BH" d="M1264.074,333.3l.223.074.149-.074.3.52-.074.149.074.669v.52l-.148.3-.074-.3-.446-.595.074-.3-.149-.52v-.3l.074-.149Z" transform="translate(-107.714 -82.962)" fill="#09a3bf"/>
      <path id="Path_1234" data-name="Path 1234" d="M1232.917,581.095l-.669-.074-.149-.3V580.5l.371.074.521.372Z" transform="translate(-99.524 -146.435)" fill="#09a3bf"/>
      <path id="Path_1235" data-name="Path 1235" d="M1236.515,579.374l.149.743v.52l-.074.149-.148-.223-.3-.223-.074-.149-.223-.074-.446-.3.074-.074.372.149.223-.074.149-.3v-.149l.223-.074Z" transform="translate(-100.371 -146.127)" fill="#09a3bf"/>
      <path id="Path_1236" data-name="Path 1236" d="M1230.866,577.476l-.372-.3-.223-.074-.223-.149-.149-.446.074-.223v-.149l.149-.892-.074-.074.149-.3.372-.074.148.223-.148.892.074.223.149.3.074.372.149.446Z" transform="translate(-98.959 -144.972)" fill="#09a3bf"/>
      <path id="Path_1237" data-name="Path 1237" d="M847.7,406.423l-.149.223-.149-.149v-.223l.223-.074Z" transform="translate(-0.745 -101.68)" fill="#09a3bf"/>
      <path id="Path_1238" data-name="Path 1238" d="M849.443,406.266l-.149.074-.3-.074-.223-.223-.074-.223.149-.3.372-.223h.3l.149.52-.074.3Z" transform="translate(-1.078 -101.449)" fill="#09a3bf"/>
      <path id="Path_1239" data-name="Path 1239" d="M853.1,403.5l.149.074v.149l.149.149.3.372h.149l.149.223.149.372.149.149-.223.372-.223.074-.372-.074-.223-.074-.223-.223v-.149l-.149-.074-.074-.3.074-.149v-.223l.149-.3-.149-.372Z" transform="translate(-2.131 -100.987)" fill="#09a3bf"/>
      <path id="Path_1240" data-name="Path 1240" d="M856.172,403.5l.223.074.074.446-.074.3-.3.149-.3-.3.149-.3-.074-.149Z" transform="translate(-2.902 -100.987)" fill="#09a3bf"/>
      <path id="Path_1241" data-name="Path 1241" d="M858.146,397.749l.223-.149.372.149.074.149v.52l-.3.223-.223.149h-.223l-.372-.149v-.372l.149-.149v-.446l.074-.074Z" transform="translate(-3.389 -99.472)" fill="#09a3bf"/>
      <path id="Path_1242" data-name="Path 1242" d="M850.12,394.923l.3-.074.223.149h.3l.223.149.074.149h-.372l-.52-.223-.149.074-.223.446-.223-.446-.074-.074-.074-.3.223-.074Z" transform="translate(-1.31 -98.728)" fill="#09a3bf"/>
      <path id="Path_1243" data-name="Path 1243" d="M857.972,394.269l.074.074-.074.446-.149.074v-.372l-.149-.223v-.223l-.074-.223.3-.223.149.149-.074.446Z" transform="translate(-3.364 -98.445)" fill="#09a3bf"/>
      <path id="Path_1244" data-name="Path 1244" d="M846.569,393.2l.149.223.074.223-.52.223-.223-.149-.149-.149.3-.3Z" transform="translate(-0.359 -98.342)" fill="#09a3bf"/>
      <path id="Path_1245" data-name="Path 1245" d="M845.615,391.4l.223.074v.149l.223.223-.149.3-.446.223-.3.3-.52.074v-.446l-.149-.149v-.149l.149-.149h.149l.149-.149.52-.3Z" transform="translate(0 -97.88)" fill="#09a3bf"/>
      <path id="Path_1249" data-name="Path 1249" d="M1167.943,276.7l.074.149.223.3-.3-.074h-.223l-.3.149L1167.2,277v-.223l.223-.074.149.074Z" transform="translate(-82.859 -68.429)" fill="#09a3bf"/>
      <path id="Path_1250" data-name="Path 1250" d="M1164.523,276.866v.074l-.149.149-.074.446-.074.149H1164l-.149.149-.372.149-.149.074-.446.223-.3-.074-.372.074-.223.3-.149-.223-.223.074h-.149l-.223-.223-.3.223h-.372l-.372-.149-.372-.074-.3-.223-.223-.446-.223-.223-.149-.52-.149-.223.074-.223.371.223.3-.074.149-.223.074-.223.223-.074.149.074.149-.149h.149l.074.3.372.149.074.149h.446l.446-.372.3.074.223-.149.223.074.3.149.149-.223h.223l.223.3v.446l.223-.149.223.149.074-.074Z" transform="translate(-80.702 -68.223)" fill="#09a3bf"/>
      <path id="Path_1262" data-name="Path 1262" d="M955.523,112l.3.149h.223l.074.149v.3l.149.223-.074.149-.446-.3-.149-.3-.149-.149L955.3,112Z" transform="translate(-28.45 -26.139)" fill="#09a3bf"/>
      <path id="MV" d="M1402.849,474.774v.149l-.149-.074.149-.149Z" transform="translate(-143.328 -119.269)" fill="#09a3bf"/>
      <path id="Path_1274" data-name="Path 1274" d="M1063.567,271.495l-.149.223-.372-.149-.372-.223v-.372l-.074-.074h.446l.3.223.149.149Z" transform="translate(-56.001 -66.94)" fill="#09a3bf"/>
      <path id="Path_1275" data-name="Path 1275" d="M1062.172,270.5l-.372-.074v-.149l.3-.074.3.223Z" transform="translate(-55.796 -66.76)" fill="#09a3bf"/>
      <path id="Path_1282" data-name="Path 1282" d="M1307.084,630.62l.3.669-.149.446-.3.3.074.223-.223.223-.371.149h-.372l-.446-.074-.074.074-.223-.223.149-.149.074-.3.074-.52.149-.3.372-.3.074-.149.149-.372.3-.223.3.074Z" transform="translate(-118.319 -159.171)" fill="#09a3bf"/>
      <path id="Path_1283" data-name="Path 1283" d="M1339.423,628.546l-.223-.223.3-.149.223-.074.149.074-.074.149Z" transform="translate(-127.023 -158.657)" fill="#09a3bf"/>
      <path id="Path_1343" data-name="Path 1343" d="M1023.669,500.761h-.149l-.149.223h-.149l-.074-.3-.149-.595v-.223l.3-.372.223-.074.223-.223.3.074.149.3.074.223-.074.3-.149.223-.223.3Z" transform="translate(-45.833 -125.56)" fill="#09a3bf"/>
      <path id="Path_1344" data-name="Path 1344" d="M1028.346,491.346l-.074.223-.149.074-.223-.074v-.223l.149-.074v-.223l.149-.149.223.074Z" transform="translate(-47.091 -123.429)" fill="#09a3bf"/>
      <path id="Path_1345" data-name="Path 1345" d="M1248.589,562.049l-.223.149h-.372l-.3.149h-.3V562.2h.372l.3-.074.3-.223h.149Z" transform="translate(-103.452 -141.659)" fill="#09a3bf"/>
      <path id="Path_1346" data-name="Path 1346" d="M1248.346,561.774l-.149.074h-.3V561.7Z" transform="translate(-103.58 -141.608)" fill="#09a3bf"/>
      <path id="Path_1347" data-name="Path 1347" d="M1300.323,531.423l.3.3-.149.223-.148-.223-.223-.149.149-.372Z" transform="translate(-116.984 -133.777)" fill="#09a3bf"/>
      <path id="Path_1381" data-name="Path 1381" d="M887.989,323.3l-.223.372-.3.372-.223-.3h-.3l-.149-.149.149-.223.3.074.3-.3.223-.149.148.074Z" transform="translate(-10.861 -80.317)" fill="#09a3bf"/>
      <path id="Path_1382" data-name="Path 1382" d="M901.409,321.074v.372l.149.3-.149.52.074.223-.3.3-.372.149-.149.149-.446-.149-.372-.372-.149-.3v-.446l.446-.3.074-.372V321l.446.074h.3l.223.074Z" transform="translate(-14.174 -79.804)" fill="#09a3bf"/>
      <path id="Path_1383" data-name="Path 1383" d="M891.92,321.592h-.149l-.223-.149-.149-.223.074-.3.074-.223h.446l.372.3.074.223-.371.372Z" transform="translate(-12.042 -79.727)" fill="#09a3bf"/>
      <path id="Path_1384" data-name="Path 1384" d="M897.07,318.374v.149l-.446.223-.3.372-.223.149v.3l-.3.52-.074.3-.372.446-.074.149h-.149l-.446.149-.074-.074-.074-.3-.223-.3-.074-.149-.149-.223v-.223l-.3-.446.372-.223.223.149.446-.149h.3l.372-.149.372-.3V318.6l.446-.223h.446L897,318.3Z" transform="translate(-12.659 -79.11)" fill="#09a3bf"/>
      <path id="Path_1385" data-name="Path 1385" d="M908.041,320.173l-.223.3-.3.074-.223-.074H907v-.149h.223l.446-.149.3-.223.223-.223.074-.372.074-.223.149-.372.223-.3.223-.446.149-.595.149-.149.3-.074.223.223.074.372-.074.372-.074.372v.372l-.074.074-.223.52-.223.223-.446.074-.52.223Z" transform="translate(-16.048 -78.828)" fill="#09a3bf"/>
      <path id="Path_1386" data-name="Path 1386" d="M888.595,316.674l.223-.074.149.223.149.372-.149.223.074.3-.446.743-.074-.074-.074-.3-.3-.669-.074-.223-.074-.149.149-.3.223-.149Z" transform="translate(-11.169 -78.674)" fill="#09a3bf"/>
      <path id="Path_1387" data-name="Path 1387" d="M912.309,314.546v.3l-.149.372-.52.372-.372.074-.3.372-.372-.149v-.074l.149-.3v-.3l.149-.223.223-.149h.223l.223-.223h.372l.074-.074.149-.372.149-.074.149.149Z" transform="translate(-16.972 -78.032)" fill="#09a3bf"/>
      <path id="YT" d="M1240.123,583.1l.149.223.372.149v.223l-.149.149.074.149-.223.446.074.149-.223.074-.149-.223v-.223l.149-.149-.149-.52-.074-.074-.074-.149Z" transform="translate(-101.526 -147.103)" fill="#09a3bf"/>
      <path id="RE" d="M1294.589,635.8h.3l.3.149.223.223v.223l.074.372.223.149.148.149.074.149-.148.446-.074.3-.149.149-.3.074h-.669l-.149-.149-.594-.3-.223-.372v-.223l-.223-.446.074-.3.149-.149.149-.3h.074l.371-.149h.371Z" transform="translate(-115.263 -160.634)" fill="#09a3bf"/>
    </g>
    <g id="Group_4516" data-name="Group 4516" transform="translate(4094 -15825)">
      <circle id="Ellipse_20" data-name="Ellipse 20" cx="5" cy="5" r="5" transform="translate(1239 1404)" fill="#09a3bf"/>
      <g id="Ellipse_21" data-name="Ellipse 21" transform="translate(1219 1384)" fill="none" stroke="#09a3bf" stroke-width="2" opacity="0.4">
        <circle cx="25" cy="25" r="25" stroke="none"/>
        <circle cx="25" cy="25" r="24" fill="none"/>
      </g>
    </g>
    <g id="Group_4517" data-name="Group 4517" transform="translate(4175 -15792)">
      <circle id="Ellipse_20-2" data-name="Ellipse 20" cx="5" cy="5" r="5" transform="translate(1239 1404)" fill="#09a3bf"/>
      <g id="Ellipse_21-2" data-name="Ellipse 21" transform="translate(1219 1384)" fill="none" stroke="#09a3bf" stroke-width="2" opacity="0.4">
        <circle cx="25" cy="25" r="25" stroke="none"/>
        <circle cx="25" cy="25" r="24" fill="none"/>
      </g>
    </g>
    <g id="Group_4518" data-name="Group 4518" transform="translate(4211 -15455)">
      <circle id="Ellipse_20-3" data-name="Ellipse 20" cx="5" cy="5" r="5" transform="translate(1239 1404)" fill="#09a3bf"/>
      <g id="Ellipse_21-3" data-name="Ellipse 21" transform="translate(1219 1384)" fill="none" stroke="#09a3bf" stroke-width="2" opacity="0.4">
        <circle cx="25" cy="25" r="25" stroke="none"/>
        <circle cx="25" cy="25" r="24" fill="none"/>
      </g>
    </g>
  </g>
</svg>
