<svg xmlns="http://www.w3.org/2000/svg" width="18" height="21" viewBox="0 0 18 21">
  <path id="Path_3564" data-name="Path 3564" d="M8.892,0h.216a.744.744,0,0,0,.544-.234l6.684-7.022a.59.59,0,0,0,.164-.408.591.591,0,0,0-.591-.591H12A.752.752,0,0,1,11.25-9V-17.25A.752.752,0,0,0,10.5-18h-3a.752.752,0,0,0-.75.75V-9A.752.752,0,0,1,6-8.25H2.091a.591.591,0,0,0-.591.591.586.586,0,0,0,.164.408L8.348-.234A.744.744,0,0,0,8.892,0ZM18-7.659a2.08,2.08,0,0,1-.577,1.439L10.734.8a2.244,2.244,0,0,1-1.627.7H8.892A2.245,2.245,0,0,1,7.266.8L.577-6.22A2.088,2.088,0,0,1,0-7.659,2.093,2.093,0,0,1,2.091-9.75H5.25v-7.5A2.251,2.251,0,0,1,7.5-19.5h3a2.251,2.251,0,0,1,2.25,2.25v7.5h3.159A2.093,2.093,0,0,1,18-7.659Z" transform="translate(0 19.5)" fill="#ef4b4b"/>
</svg>
