<svg xmlns="http://www.w3.org/2000/svg" width="18" height="21" viewBox="0 0 18 21">
  <path id="Path_3565" data-name="Path 3565" d="M8.892-18h.216a.744.744,0,0,1,.544.234l6.684,7.022a.59.59,0,0,1,.164.408.591.591,0,0,1-.591.591H12a.752.752,0,0,0-.75.75V-.75A.752.752,0,0,1,10.5,0h-3a.752.752,0,0,1-.75-.75V-9A.752.752,0,0,0,6-9.75H2.091a.591.591,0,0,1-.591-.591.586.586,0,0,1,.164-.408l6.684-7.017A.744.744,0,0,1,8.892-18ZM18-10.341a2.08,2.08,0,0,0-.577-1.439L10.734-18.8a2.244,2.244,0,0,0-1.627-.7H8.892a2.245,2.245,0,0,0-1.627.7L.577-11.78A2.088,2.088,0,0,0,0-10.341,2.093,2.093,0,0,0,2.091-8.25H5.25v7.5A2.251,2.251,0,0,0,7.5,1.5h3A2.251,2.251,0,0,0,12.75-.75v-7.5h3.159A2.093,2.093,0,0,0,18-10.341Z" transform="translate(0 19.5)" fill="#4bbc4e"/>
</svg>
