<svg xmlns="http://www.w3.org/2000/svg" width="20" height="20" viewBox="0 0 20 20">
  <path id="check" d="M0-16.25a8.75,8.75,0,0,1,7.578,4.375,8.75,8.75,0,0,1,0,8.75A8.75,8.75,0,0,1,0,1.25,8.75,8.75,0,0,1-7.578-3.125a8.75,8.75,0,0,1,0-8.75A8.75,8.75,0,0,1,0-16.25ZM0,2.5a10,10,0,0,0,8.66-5,10,10,0,0,0,0-10A10,10,0,0,0,0-17.5a10,10,0,0,0-8.66,5,10,10,0,0,0,0,10A10,10,0,0,0,0,2.5ZM4.191-9.559,4.633-10l-.883-.883-.441.441L-1.25-5.883-3.309-7.941l-.441-.441-.883.883.441.441,2.5,2.5.441.441.441-.441Z" transform="translate(10 17.5)" fill="currentColor"/>
</svg>
