<?xml version="1.0" encoding="UTF-8"?>
<svg xmlns="http://www.w3.org/2000/svg" width="50" height="50" viewBox="0 0 50 50">
  <g id="Group_4304" data-name="Group 4304" transform="translate(10156 16733.531)">
    <rect id="Rectangle_764" data-name="Rectangle 764" width="50" height="50" rx="25" transform="translate(-10156 -16733.531)" fill="#09a3bf" opacity="0.15"></rect>
    <path id="Path_1405" data-name="Path 1405" d="M0-19.5a4.5,4.5,0,0,1,3.9,2.25,4.5,4.5,0,0,1,0,4.5A4.5,4.5,0,0,1,0-10.5a4.5,4.5,0,0,1-3.9-2.25,4.5,4.5,0,0,1,0-4.5A4.5,4.5,0,0,1,0-19.5ZM-6-15A6,6,0,0,0-3-9.8a6,6,0,0,0,6,0A6,6,0,0,0,6-15a6,6,0,0,0-3-5.2,6,6,0,0,0-6,0A6,6,0,0,0-6-15Zm4.5,8.25h-.75v1.5h1.209l-.933,2.8L-3.75-6H-7.5L-10,1.5-10.5,3h21L10,1.5,7.5-6H3.75L1.973-2.447l-.933-2.8H2.25v-1.5H-1.5ZM-.839-.178l-.188-.375L0-3.628,1.027-.553.839-.178,0,1.5ZM1.678,1.5l3-6H6.422l2,6Zm-3.356,0H-8.419l2-6h1.744l3,6Z" transform="translate(-10131 -16700)" fill="#09a3bf" stroke="rgba(0,0,0,0)" stroke-width="1"></path>
  </g>
</svg>
