<svg xmlns="http://www.w3.org/2000/svg" width="20" height="20" viewBox="0 0 20 20">
  <path id="info" d="M0-16.25a8.75,8.75,0,0,1,7.578,4.375,8.75,8.75,0,0,1,0,8.75A8.75,8.75,0,0,1,0,1.25,8.75,8.75,0,0,1-7.578-3.125a8.75,8.75,0,0,1,0-8.75A8.75,8.75,0,0,1,0-16.25ZM0,2.5a10,10,0,0,0,8.66-5,10,10,0,0,0,0-10A10,10,0,0,0,0-17.5a10,10,0,0,0-8.66,5,10,10,0,0,0,0,10A10,10,0,0,0,0,2.5ZM-2.5-3.75V-2.5h5V-3.75H.625v-5H-2.187V-7.5H-.625v3.75H-2.5ZM.938-10.312v-1.875H-.937v1.875Z" transform="translate(10 17.5)" fill="#011a1e"/>
</svg>
