<svg style="height:18px" id="Layer_2" xmlns="http://www.w3.org/2000/svg" viewBox="0 0 150 18.06"><defs><style>.cls-1{fill:#011a1e;stroke-width:0px;}</style></defs><g id="Layer_1-2"><path class="cls-1" d="m40.65,4.54c-1.13,0-2.18.41-3.09,1.34v-1.18h-2.56v12.96h2.56v-7.48c0-1.7,1.38-3.09,3.09-3.09s3.09,1.38,3.09,3.09v7.48h2.56v-7.48c-.01-3.1-2.55-5.64-5.65-5.64Z"></path><path class="cls-1" d="m82.14,4.54c-1.13,0-2.15.36-3.09,1.34V0h-2.56v17.66h2.56v-7.48c0-1.7,1.38-3.09,3.09-3.09s3.09,1.38,3.09,3.09v7.48h2.56v-7.48c-.01-3.1-2.54-5.64-5.65-5.64Z"></path><path class="cls-1" d="m13.3,4.54c-1.6,0-3.04.72-4,1.84-.97-1.13-2.41-1.84-4-1.84-1,0-1.96.37-2.73,1.18v-1.03H0v12.96h2.56v-7.84c0-1.51,1.22-2.73,2.73-2.73s2.73,1.22,2.73,2.73v7.84h2.56v-7.84c0-1.51,1.22-2.73,2.73-2.73s2.73,1.22,2.73,2.73v7.84h2.56v-7.84c-.01-2.9-2.38-5.28-5.3-5.28Z"></path><path class="cls-1" d="m125.82,4.54c-1.6,0-3.04.72-4,1.84-.97-1.13-2.41-1.84-4-1.84-1,0-1.94.39-2.73,1.18v-1.03h-2.57v12.96h2.56v-7.84c0-1.51,1.22-2.73,2.73-2.73s2.73,1.22,2.73,2.73v7.84h2.56v-7.84c0-1.51,1.22-2.73,2.73-2.73s2.73,1.22,2.73,2.73v7.84h2.56v-7.84c0-2.9-2.38-5.28-5.29-5.28Z"></path><path class="cls-1" d="m26.82,4.54c-3.72,0-6.75,3.03-6.75,6.75s3.03,6.75,6.75,6.75,6.75-3.03,6.75-6.75-3.04-6.75-6.75-6.75Zm0,10.94c-2.3,0-4.18-1.88-4.18-4.18s1.88-4.18,4.18-4.18,4.18,1.88,4.18,4.18-1.88,4.18-4.18,4.18Z"></path><path class="cls-1" d="m54.43,4.54c-3.72,0-6.75,3.03-6.75,6.75s3.03,6.75,6.75,6.75,6.75-3.03,6.75-6.75-3.03-6.75-6.75-6.75Zm0,10.94c-2.3,0-4.18-1.88-4.18-4.18s1.88-4.18,4.18-4.18,4.18,1.88,4.18,4.18-1.88,4.18-4.18,4.18Z"></path><path class="cls-1" d="m104.35,4.54c-3.72,0-6.75,3.03-6.75,6.75s3.03,6.75,6.75,6.75,6.75-3.03,6.75-6.75-3.03-6.75-6.75-6.75Zm0,10.94c-2.3,0-4.18-1.88-4.18-4.18s1.88-4.18,4.18-4.18,4.18,1.88,4.18,4.18-1.87,4.18-4.18,4.18Z"></path><path class="cls-1" d="m69.09,7.11c1.54,0,2.96.85,3.69,2.21l2.25-1.21c-1.18-2.19-3.46-3.55-5.95-3.55-3.72,0-6.75,3.03-6.75,6.75s3.03,6.75,6.75,6.75c2.48,0,4.76-1.36,5.95-3.55l-2.25-1.21c-.73,1.36-2.15,2.21-3.69,2.21-2.3,0-4.18-1.88-4.18-4.18s1.88-4.21,4.18-4.21Z"></path><circle class="cls-1" cx="148.29" cy="16.34" r="1.71"></circle><path class="cls-1" d="m98.3,5.55c-.94-.64-2.05-.99-3.19-.99s-2.24.51-3.09,1.34v-1.18h-2.55v12.96h2.56v-7.48c0-1.7,1.38-3.09,3.09-3.09.62,0,1.22.19,1.74.54.36-.77.85-1.48,1.44-2.1Z"></path><path class="cls-1" d="m143.42,11.29c0,2.3-1.88,4.18-4.18,4.18s-4.18-1.88-4.18-4.18,1.88-4.18,4.18-4.18c.93,0,1.82.31,2.55.86l-3.27,2.29c-.58.4-.72,1.2-.31,1.78.21.28.5.46.82.53.32.05.67-.01.95-.21l5.43-3.8c-.33-.76-.81-1.44-1.4-2.02h0s-.03-.03-.04-.04l-.03-.03h0c-1.26-1.24-2.94-1.91-4.7-1.91-3.72,0-6.75,3.03-6.75,6.75s3.03,6.75,6.75,6.75,6.75-3.03,6.75-6.75h-2.57v-.03Z"></path></g></svg>