<svg xmlns="http://www.w3.org/2000/svg" width="21.027" height="20" viewBox="0 0 21.027 20">
  <path id="star" d="M3.383-11.094.707-16.16,0-17.5-.7-16.16l-2.676,5.066-5.641.977-1.492.258,1.055,1.086,3.992,4.105L-6.281,1-6.5,2.5l1.359-.668L0-.7,5.145,1.832,6.5,2.5,6.285,1,5.469-4.668,9.461-8.773l1.055-1.086-1.492-.258-5.641-.977ZM7.969-9.031,4.574-5.539l-.43.441.086.609.7,4.824L.555-1.812,0-2.082l-.551.27L-4.922.332l.7-4.824.086-.609-.43-.441L-7.965-9.031l4.8-.832.605-.105.285-.543L0-14.82l2.273,4.309.285.543.605.105Z" transform="translate(10.512 17.5)" fill="#011a1e"/>
</svg>
